<svg width="123" height="135" viewBox="0 0 123 135" fill="none" xmlns="http://www.w3.org/2000/svg">
<g filter="url(#filter0_d_20_768)">
<rect x="4" y="4" width="115" height="127" rx="10" fill="#F0F9FB"/>
</g>
<path d="M34.592 109.416C34.592 108.328 34.8427 107.352 35.344 106.488C35.856 105.624 36.544 104.952 37.408 104.472C38.2827 103.981 39.2373 103.736 40.272 103.736C41.456 103.736 42.5067 104.029 43.424 104.616C44.352 105.192 45.024 106.013 45.44 107.08H43.248C42.96 106.493 42.56 106.056 42.048 105.768C41.536 105.48 40.944 105.336 40.272 105.336C39.536 105.336 38.88 105.501 38.304 105.832C37.728 106.163 37.2747 106.637 36.944 107.256C36.624 107.875 36.464 108.595 36.464 109.416C36.464 110.237 36.624 110.957 36.944 111.576C37.2747 112.195 37.728 112.675 38.304 113.016C38.88 113.347 39.536 113.512 40.272 113.512C40.944 113.512 41.536 113.368 42.048 113.08C42.56 112.792 42.96 112.355 43.248 111.768H45.44C45.024 112.835 44.352 113.656 43.424 114.232C42.5067 114.808 41.456 115.096 40.272 115.096C39.2267 115.096 38.272 114.856 37.408 114.376C36.544 113.885 35.856 113.208 35.344 112.344C34.8427 111.48 34.592 110.504 34.592 109.416ZM46.967 110.552C46.967 109.667 47.1483 108.883 47.511 108.2C47.8843 107.517 48.3857 106.989 49.015 106.616C49.655 106.232 50.359 106.04 51.127 106.04C51.8203 106.04 52.423 106.179 52.935 106.456C53.4577 106.723 53.8737 107.059 54.183 107.464V106.184H56.023V115H54.183V113.688C53.8737 114.104 53.4523 114.451 52.919 114.728C52.3857 115.005 51.7777 115.144 51.095 115.144C50.3377 115.144 49.6443 114.952 49.015 114.568C48.3857 114.173 47.8843 113.629 47.511 112.936C47.1483 112.232 46.967 111.437 46.967 110.552ZM54.183 110.584C54.183 109.976 54.055 109.448 53.799 109C53.5537 108.552 53.2283 108.211 52.823 107.976C52.4177 107.741 51.9803 107.624 51.511 107.624C51.0417 107.624 50.6043 107.741 50.199 107.976C49.7937 108.2 49.463 108.536 49.207 108.984C48.9617 109.421 48.839 109.944 48.839 110.552C48.839 111.16 48.9617 111.693 49.207 112.152C49.463 112.611 49.7937 112.963 50.199 113.208C50.615 113.443 51.0523 113.56 51.511 113.56C51.9803 113.56 52.4177 113.443 52.823 113.208C53.2283 112.973 53.5537 112.632 53.799 112.184C54.055 111.725 54.183 111.192 54.183 110.584ZM60.2428 103.16V115H58.4188V103.16H60.2428ZM64.4615 103.16V115H62.6375V103.16H64.4615ZM72.8205 103.88V110.968C72.8205 111.811 73.0392 112.445 73.4765 112.872C73.9245 113.299 74.5432 113.512 75.3325 113.512C76.1325 113.512 76.7512 113.299 77.1885 112.872C77.6365 112.445 77.8605 111.811 77.8605 110.968V103.88H79.6845V110.936C79.6845 111.843 79.4872 112.611 79.0925 113.24C78.6978 113.869 78.1698 114.339 77.5085 114.648C76.8472 114.957 76.1165 115.112 75.3165 115.112C74.5165 115.112 73.7858 114.957 73.1245 114.648C72.4738 114.339 71.9565 113.869 71.5725 113.24C71.1885 112.611 70.9965 111.843 70.9965 110.936V103.88H72.8205ZM85.2594 115.144C84.566 115.144 83.942 115.021 83.3874 114.776C82.8434 114.52 82.4114 114.179 82.0914 113.752C81.7714 113.315 81.6007 112.829 81.5794 112.296H83.4674C83.4994 112.669 83.6754 112.984 83.9954 113.24C84.326 113.485 84.7367 113.608 85.2274 113.608C85.7394 113.608 86.134 113.512 86.4114 113.32C86.6994 113.117 86.8434 112.861 86.8434 112.552C86.8434 112.221 86.6834 111.976 86.3634 111.816C86.054 111.656 85.558 111.48 84.8754 111.288C84.214 111.107 83.6754 110.931 83.2594 110.76C82.8434 110.589 82.4807 110.328 82.1714 109.976C81.8727 109.624 81.7234 109.16 81.7234 108.584C81.7234 108.115 81.862 107.688 82.1394 107.304C82.4167 106.909 82.8114 106.6 83.3234 106.376C83.846 106.152 84.4434 106.04 85.1154 106.04C86.118 106.04 86.9234 106.296 87.5314 106.808C88.15 107.309 88.4807 107.997 88.5234 108.872H86.6994C86.6674 108.477 86.5074 108.163 86.2194 107.928C85.9314 107.693 85.542 107.576 85.0514 107.576C84.5714 107.576 84.2034 107.667 83.9474 107.848C83.6914 108.029 83.5634 108.269 83.5634 108.568C83.5634 108.803 83.6487 109 83.8194 109.16C83.99 109.32 84.198 109.448 84.4434 109.544C84.6887 109.629 85.0514 109.741 85.5314 109.88C86.1714 110.051 86.694 110.227 87.0994 110.408C87.5154 110.579 87.8727 110.835 88.1714 111.176C88.47 111.517 88.6247 111.971 88.6354 112.536C88.6354 113.037 88.4967 113.485 88.2194 113.88C87.942 114.275 87.5474 114.584 87.0354 114.808C86.534 115.032 85.942 115.144 85.2594 115.144Z" fill="black"/>
<path d="M67.6667 46.2222V33H71.4444V46.2222H67.6667ZM75.2222 46.2222V33H79V46.2222H75.2222ZM77.0167 67C72.9556 67 68.9971 66.1028 65.1412 64.3083C61.2841 62.5139 57.8684 60.1213 54.894 57.1306C51.9184 54.1398 49.5258 50.7159 47.7162 46.8588C45.9054 43.0029 45 39.0444 45 34.9833V33.9917C45 33.6454 45.0315 33.3148 45.0944 33H56.1444L57.8917 42.4917L52.5083 47.9222C53.8306 50.1889 55.4915 52.3139 57.4912 54.2972C59.4897 56.2806 61.6852 57.9963 64.0778 59.4444L69.5556 53.9667L79 55.8556V66.9056C78.6852 66.937 78.3546 66.961 78.0083 66.9773C77.662 66.9924 77.3315 67 77.0167 67Z" fill="#5E43C3"/>
<defs>
<filter id="filter0_d_20_768" x="0" y="0" width="123" height="135" filterUnits="userSpaceOnUse" color-interpolation-filters="sRGB">
<feFlood flood-opacity="0" result="BackgroundImageFix"/>
<feColorMatrix in="SourceAlpha" type="matrix" values="0 0 0 0 0 0 0 0 0 0 0 0 0 0 0 0 0 0 127 0" result="hardAlpha"/>
<feOffset/>
<feGaussianBlur stdDeviation="2"/>
<feComposite in2="hardAlpha" operator="out"/>
<feColorMatrix type="matrix" values="0 0 0 0 0 0 0 0 0 0 0 0 0 0 0 0 0 0 0.25 0"/>
<feBlend mode="normal" in2="BackgroundImageFix" result="effect1_dropShadow_20_768"/>
<feBlend mode="normal" in="SourceGraphic" in2="effect1_dropShadow_20_768" result="shape"/>
</filter>
</defs>
</svg>
