<svg width="123" height="135" viewBox="0 0 123 135" fill="none" xmlns="http://www.w3.org/2000/svg">
<g filter="url(#filter0_d_20_769)">
<rect x="4" y="4" width="115" height="127" rx="10" fill="#F0F9FB"/>
</g>
<path d="M30.024 105.352V108.616H33.864V110.104H30.024V113.512H34.344V115H28.2V103.864H34.344V105.352H30.024ZM47.2626 106.04C47.956 106.04 48.5746 106.184 49.1186 106.472C49.6733 106.76 50.1053 107.187 50.4146 107.752C50.7346 108.317 50.8946 109 50.8946 109.8V115H49.0866V110.072C49.0866 109.283 48.8893 108.68 48.4946 108.264C48.1 107.837 47.5613 107.624 46.8786 107.624C46.196 107.624 45.652 107.837 45.2466 108.264C44.852 108.68 44.6546 109.283 44.6546 110.072V115H42.8466V110.072C42.8466 109.283 42.6493 108.68 42.2546 108.264C41.86 107.837 41.3213 107.624 40.6386 107.624C39.956 107.624 39.412 107.837 39.0066 108.264C38.612 108.68 38.4146 109.283 38.4146 110.072V115H36.5906V106.184H38.4146V107.192C38.7133 106.829 39.092 106.547 39.5506 106.344C40.0093 106.141 40.5 106.04 41.0226 106.04C41.7266 106.04 42.356 106.189 42.9106 106.488C43.4653 106.787 43.892 107.219 44.1906 107.784C44.4573 107.251 44.8733 106.829 45.4386 106.52C46.004 106.2 46.612 106.04 47.2626 106.04ZM52.6076 110.552C52.6076 109.667 52.789 108.883 53.1516 108.2C53.525 107.517 54.0263 106.989 54.6556 106.616C55.2956 106.232 55.9996 106.04 56.7676 106.04C57.461 106.04 58.0636 106.179 58.5756 106.456C59.0983 106.723 59.5143 107.059 59.8236 107.464V106.184H61.6636V115H59.8236V113.688C59.5143 114.104 59.093 114.451 58.5596 114.728C58.0263 115.005 57.4183 115.144 56.7356 115.144C55.9783 115.144 55.285 114.952 54.6556 114.568C54.0263 114.173 53.525 113.629 53.1516 112.936C52.789 112.232 52.6076 111.437 52.6076 110.552ZM59.8236 110.584C59.8236 109.976 59.6956 109.448 59.4396 109C59.1943 108.552 58.869 108.211 58.4636 107.976C58.0583 107.741 57.621 107.624 57.1516 107.624C56.6823 107.624 56.245 107.741 55.8396 107.976C55.4343 108.2 55.1036 108.536 54.8476 108.984C54.6023 109.421 54.4796 109.944 54.4796 110.552C54.4796 111.16 54.6023 111.693 54.8476 112.152C55.1036 112.611 55.4343 112.963 55.8396 113.208C56.2556 113.443 56.693 113.56 57.1516 113.56C57.621 113.56 58.0583 113.443 58.4636 113.208C58.869 112.973 59.1943 112.632 59.4396 112.184C59.6956 111.725 59.8236 111.192 59.8236 110.584ZM64.9874 105.016C64.6567 105.016 64.3794 104.904 64.1554 104.68C63.9314 104.456 63.8194 104.179 63.8194 103.848C63.8194 103.517 63.9314 103.24 64.1554 103.016C64.3794 102.792 64.6567 102.68 64.9874 102.68C65.3074 102.68 65.5794 102.792 65.8034 103.016C66.0274 103.24 66.1394 103.517 66.1394 103.848C66.1394 104.179 66.0274 104.456 65.8034 104.68C65.5794 104.904 65.3074 105.016 64.9874 105.016ZM65.8834 106.184V115H64.0594V106.184H65.8834ZM70.1021 103.16V115H68.2781V103.16H70.1021ZM78.4611 103.88V110.968C78.4611 111.811 78.6798 112.445 79.1171 112.872C79.5651 113.299 80.1838 113.512 80.9731 113.512C81.7731 113.512 82.3918 113.299 82.8291 112.872C83.2771 112.445 83.5011 111.811 83.5011 110.968V103.88H85.3251V110.936C85.3251 111.843 85.1278 112.611 84.7331 113.24C84.3385 113.869 83.8105 114.339 83.1491 114.648C82.4878 114.957 81.7571 115.112 80.9571 115.112C80.1571 115.112 79.4265 114.957 78.7651 114.648C78.1145 114.339 77.5971 113.869 77.2131 113.24C76.8291 112.611 76.6371 111.843 76.6371 110.936V103.88H78.4611ZM90.9 115.144C90.2067 115.144 89.5827 115.021 89.028 114.776C88.484 114.52 88.052 114.179 87.732 113.752C87.412 113.315 87.2413 112.829 87.22 112.296H89.108C89.14 112.669 89.316 112.984 89.636 113.24C89.9667 113.485 90.3773 113.608 90.868 113.608C91.38 113.608 91.7747 113.512 92.052 113.32C92.34 113.117 92.484 112.861 92.484 112.552C92.484 112.221 92.324 111.976 92.004 111.816C91.6947 111.656 91.1987 111.48 90.516 111.288C89.8547 111.107 89.316 110.931 88.9 110.76C88.484 110.589 88.1213 110.328 87.812 109.976C87.5133 109.624 87.364 109.16 87.364 108.584C87.364 108.115 87.5027 107.688 87.78 107.304C88.0573 106.909 88.452 106.6 88.964 106.376C89.4867 106.152 90.084 106.04 90.756 106.04C91.7587 106.04 92.564 106.296 93.172 106.808C93.7907 107.309 94.1213 107.997 94.164 108.872H92.34C92.308 108.477 92.148 108.163 91.86 107.928C91.572 107.693 91.1827 107.576 90.692 107.576C90.212 107.576 89.844 107.667 89.588 107.848C89.332 108.029 89.204 108.269 89.204 108.568C89.204 108.803 89.2893 109 89.46 109.16C89.6307 109.32 89.8387 109.448 90.084 109.544C90.3293 109.629 90.692 109.741 91.172 109.88C91.812 110.051 92.3347 110.227 92.74 110.408C93.156 110.579 93.5133 110.835 93.812 111.176C94.1107 111.517 94.2653 111.971 94.276 112.536C94.276 113.037 94.1373 113.485 93.86 113.88C93.5827 114.275 93.188 114.584 92.676 114.808C92.1747 115.032 91.5827 115.144 90.9 115.144Z" fill="black"/>
<path d="M84 37.25C84 34.9125 82.02 33 79.6 33H44.4C41.98 33 40 34.9125 40 37.25V62.75C40 65.0875 41.98 67 44.4 67H79.6C82.02 67 84 65.0875 84 62.75V37.25ZM79.6 37.25L62 47.875L44.4 37.25H79.6ZM79.6 62.75H44.4V41.5L62 52.125L79.6 41.5V62.75Z" fill="#5E43C3"/>
<defs>
<filter id="filter0_d_20_769" x="0" y="0" width="123" height="135" filterUnits="userSpaceOnUse" color-interpolation-filters="sRGB">
<feFlood flood-opacity="0" result="BackgroundImageFix"/>
<feColorMatrix in="SourceAlpha" type="matrix" values="0 0 0 0 0 0 0 0 0 0 0 0 0 0 0 0 0 0 127 0" result="hardAlpha"/>
<feOffset/>
<feGaussianBlur stdDeviation="2"/>
<feComposite in2="hardAlpha" operator="out"/>
<feColorMatrix type="matrix" values="0 0 0 0 0 0 0 0 0 0 0 0 0 0 0 0 0 0 0.25 0"/>
<feBlend mode="normal" in2="BackgroundImageFix" result="effect1_dropShadow_20_769"/>
<feBlend mode="normal" in="SourceGraphic" in2="effect1_dropShadow_20_769" result="shape"/>
</filter>
</defs>
</svg>
