<svg width="351" height="74" viewBox="0 0 351 74" fill="none" xmlns="http://www.w3.org/2000/svg">
<g filter="url(#filter0_d_9_29)">
<rect x="8" y="8" width="335" height="58" rx="12" fill="white"/>
</g>
<line x1="69.5" y1="20" x2="69.5" y2="54" stroke="#5E43C3"/>
<rect x="22" y="22" width="35" height="31" rx="2" fill="#F0F9FB"/>
<path d="M32.0102 47.0261C31.6648 47.0261 31.3454 47.0261 31.0065 47.0261C31.0065 46.9232 31.0065 46.8409 31.0065 46.7586C31.0065 45.3116 31.0065 43.8647 31.0065 42.4246C31.0065 40.2438 32.525 38.6391 34.5845 38.6391C37.5303 38.6323 40.4696 38.6323 43.4155 38.6391C45.4815 38.646 47 40.2438 47 42.4246C47 43.8715 47 45.3185 47 46.7586C47 46.8478 47 46.9369 47 47.0398C46.6546 47.0398 46.3418 47.0398 45.9963 47.0398C45.9963 46.9301 45.9963 46.8272 45.9963 46.7243C45.9963 45.3116 45.9963 43.899 45.9963 42.4931C45.9963 42.2806 45.9963 42.0611 45.9572 41.8554C45.7226 40.5387 44.7124 39.6883 43.3764 39.6883C40.4631 39.6883 37.5564 39.6883 34.6432 39.6883C34.4346 39.6883 34.2195 39.6952 34.011 39.7432C32.8053 40.0107 32.0232 41.0462 32.0167 42.3834C32.0102 43.8304 32.0167 45.2774 32.0167 46.7175C32.0102 46.8135 32.0102 46.9095 32.0102 47.0261Z" fill="#5E43C3"/>
<path d="M33.5026 31.7951C33.5222 35.0113 35.9792 37.583 39.0228 37.5692C42.0533 37.5555 44.5169 34.9496 44.4973 31.7676C44.4843 28.5583 41.9882 25.966 38.938 26.0003C35.9466 26.0346 33.4831 28.6543 33.5026 31.7951ZM38.9772 27.0633C41.4668 27.0564 43.4871 29.1549 43.4937 31.7471C43.5002 34.3941 41.5059 36.5132 39.0097 36.52C36.5266 36.5269 34.5128 34.4216 34.5063 31.7951C34.4998 29.196 36.5071 27.0701 38.9772 27.0633Z" fill="#5E43C3"/>
<path d="M32.0102 47.0259C32.0102 46.9162 32.0102 46.8133 32.0102 46.7104C32.0102 45.2635 32.0037 43.8165 32.0102 42.3764C32.0167 41.0391 32.8053 40.0036 34.0045 39.7362C34.2065 39.6882 34.4216 39.6813 34.6367 39.6813C37.5499 39.6813 40.4566 39.6744 43.3699 39.6813C44.7059 39.6813 45.7161 40.5317 45.9507 41.8483C45.9898 42.0541 45.9898 42.2735 45.9898 42.4861C45.9898 43.8988 45.9898 45.3115 45.9898 46.7173C45.9898 46.8202 45.9898 46.9162 45.9898 47.0327C46.3352 47.0327 46.6481 47.0327 46.9935 47.0327C46.9935 46.9299 46.9935 46.8407 46.9935 46.7516C46.9935 45.3046 46.9935 43.8576 46.9935 42.4175C46.9935 40.2436 45.475 38.6389 43.409 38.6321C40.4631 38.6252 37.5238 38.6252 34.578 38.6321C32.512 38.6389 31 40.2436 31 42.4175C31 43.8645 31 45.3115 31 46.7516C31 46.8339 31 46.9162 31 47.019C31.3454 47.0259 31.6648 47.0259 32.0102 47.0259Z" fill="#5E43C3"/>
<path d="M89.9224 35.112C89.9224 36.04 89.6024 36.8133 88.9624 37.432C88.333 38.04 87.3677 38.344 86.0664 38.344H83.9224V43H82.4664V31.848H86.0664C87.325 31.848 88.2797 32.152 88.9304 32.76C89.5917 33.368 89.9224 34.152 89.9224 35.112ZM86.0664 37.144C86.877 37.144 87.4744 36.968 87.8584 36.616C88.2424 36.264 88.4344 35.7627 88.4344 35.112C88.4344 33.736 87.645 33.048 86.0664 33.048H83.9224V37.144H86.0664ZM93.188 35.656C93.444 35.1547 93.8067 34.7653 94.276 34.488C94.756 34.2107 95.3373 34.072 96.02 34.072V35.576H95.636C94.004 35.576 93.188 36.4613 93.188 38.232V43H91.732V34.232H93.188V35.656ZM101.525 43.144C100.703 43.144 99.9568 42.9573 99.2848 42.584C98.6234 42.2107 98.1008 41.6827 97.7168 41C97.3434 40.3067 97.1568 39.5067 97.1568 38.6C97.1568 37.704 97.3488 36.9147 97.7328 36.232C98.1274 35.5387 98.6608 35.0107 99.3328 34.648C100.005 34.2747 100.757 34.088 101.589 34.088C102.421 34.088 103.173 34.2747 103.845 34.648C104.517 35.0107 105.045 35.5333 105.429 36.216C105.823 36.8987 106.021 37.6933 106.021 38.6C106.021 39.5067 105.818 40.3067 105.413 41C105.018 41.6827 104.479 42.2107 103.797 42.584C103.114 42.9573 102.357 43.144 101.525 43.144ZM101.525 41.864C102.047 41.864 102.538 41.7413 102.997 41.496C103.455 41.2507 103.823 40.8827 104.101 40.392C104.389 39.9013 104.533 39.304 104.533 38.6C104.533 37.896 104.394 37.2987 104.117 36.808C103.839 36.3173 103.477 35.9547 103.029 35.72C102.581 35.4747 102.095 35.352 101.573 35.352C101.039 35.352 100.549 35.4747 100.101 35.72C99.6634 35.9547 99.3114 36.3173 99.0448 36.808C98.7781 37.2987 98.6448 37.896 98.6448 38.6C98.6448 39.3147 98.7728 39.9173 99.0288 40.408C99.2954 40.8987 99.6474 41.2667 100.085 41.512C100.522 41.7467 101.002 41.864 101.525 41.864ZM111.503 35.432H109.663V43H108.207V35.432H107.071V34.232H108.207V33.608C108.207 32.6267 108.458 31.912 108.959 31.464C109.471 31.0053 110.287 30.776 111.407 30.776V31.992C110.767 31.992 110.314 32.12 110.047 32.376C109.791 32.6213 109.663 33.032 109.663 33.608V34.232H111.503V35.432ZM113.953 32.808C113.675 32.808 113.441 32.712 113.249 32.52C113.057 32.328 112.961 32.0933 112.961 31.816C112.961 31.5387 113.057 31.304 113.249 31.112C113.441 30.92 113.675 30.824 113.953 30.824C114.219 30.824 114.443 30.92 114.625 31.112C114.817 31.304 114.913 31.5387 114.913 31.816C114.913 32.0933 114.817 32.328 114.625 32.52C114.443 32.712 114.219 32.808 113.953 32.808ZM114.657 34.232V43H113.201V34.232H114.657ZM118.594 31.16V43H117.138V31.16H118.594ZM129.076 38.28C129.076 38.5573 129.06 38.8507 129.028 39.16H122.02C122.073 40.024 122.366 40.7013 122.9 41.192C123.444 41.672 124.1 41.912 124.868 41.912C125.497 41.912 126.02 41.768 126.436 41.48C126.862 41.1813 127.161 40.7867 127.332 40.296H128.9C128.665 41.1387 128.196 41.8267 127.492 42.36C126.788 42.8827 125.913 43.144 124.868 43.144C124.036 43.144 123.289 42.9573 122.628 42.584C121.977 42.2107 121.465 41.6827 121.092 41C120.718 40.3067 120.532 39.5067 120.532 38.6C120.532 37.6933 120.713 36.8987 121.076 36.216C121.438 35.5333 121.945 35.0107 122.596 34.648C123.257 34.2747 124.014 34.088 124.868 34.088C125.7 34.088 126.436 34.2693 127.076 34.632C127.716 34.9947 128.206 35.496 128.548 36.136C128.9 36.7653 129.076 37.48 129.076 38.28ZM127.572 37.976C127.572 37.4213 127.449 36.9467 127.204 36.552C126.958 36.1467 126.622 35.8427 126.196 35.64C125.78 35.4267 125.316 35.32 124.804 35.32C124.068 35.32 123.438 35.5547 122.916 36.024C122.404 36.4933 122.11 37.144 122.036 37.976H127.572Z" fill="#757575"/>
<path d="M321.11 25L333 37L321.11 49L319 46.87L328.779 37L319 27.13L321.11 25Z" fill="#BEBEBE"/>
<defs>
<filter id="filter0_d_9_29" x="0" y="0" width="351" height="74" filterUnits="userSpaceOnUse" color-interpolation-filters="sRGB">
<feFlood flood-opacity="0" result="BackgroundImageFix"/>
<feColorMatrix in="SourceAlpha" type="matrix" values="0 0 0 0 0 0 0 0 0 0 0 0 0 0 0 0 0 0 127 0" result="hardAlpha"/>
<feOffset/>
<feGaussianBlur stdDeviation="4"/>
<feComposite in2="hardAlpha" operator="out"/>
<feColorMatrix type="matrix" values="0 0 0 0 0 0 0 0 0 0 0 0 0 0 0 0 0 0 0.1 0"/>
<feBlend mode="normal" in2="BackgroundImageFix" result="effect1_dropShadow_9_29"/>
<feBlend mode="normal" in="SourceGraphic" in2="effect1_dropShadow_9_29" result="shape"/>
</filter>
</defs>
</svg>
