<svg width="21" height="22" viewBox="0 0 21 22" fill="none" xmlns="http://www.w3.org/2000/svg">
<path d="M20.1761 17.9538C19.6494 16.7188 18.8849 15.5971 17.9254 14.651C16.9687 13.7022 15.8355 12.9457 14.5883 12.4234C14.5771 12.4178 14.5659 12.4151 14.5548 12.4095C16.2945 11.1658 17.4255 9.13995 17.4255 6.85427C17.4255 3.06784 14.3258 0 10.5 0C6.67423 0 3.57451 3.06784 3.57451 6.85427C3.57451 9.13995 4.70549 11.1658 6.44524 12.4123C6.43407 12.4178 6.4229 12.4206 6.41173 12.4261C5.16067 12.9485 4.03807 13.6975 3.07465 14.6538C2.116 15.6006 1.35167 16.7221 0.823868 17.9565C0.305356 19.165 0.0257107 20.4607 6.98301e-05 21.7734C-0.000675511 21.8029 0.00455219 21.8322 0.015445 21.8597C0.0263379 21.8871 0.0426754 21.9122 0.063495 21.9333C0.0843145 21.9544 0.109195 21.9712 0.13667 21.9827C0.164145 21.9941 0.193659 22 0.223473 22H1.89899C2.02186 22 2.1196 21.9033 2.1224 21.7844C2.17825 19.6508 3.04393 17.6525 4.57424 16.1379C6.15761 14.5709 8.26039 13.7085 10.5 13.7085C12.7396 13.7085 14.8424 14.5709 16.4258 16.1379C17.9561 17.6525 18.8218 19.6508 18.8776 21.7844C18.8804 21.906 18.9781 22 19.101 22H20.7765C20.8063 22 20.8359 21.9941 20.8633 21.9827C20.8908 21.9712 20.9157 21.9544 20.9365 21.9333C20.9573 21.9122 20.9737 21.8871 20.9846 21.8597C20.9954 21.8322 21.0007 21.8029 20.9999 21.7734C20.972 20.4523 20.6955 19.1671 20.1761 17.9538ZM10.5 11.608C9.21823 11.608 8.01185 11.1133 7.10428 10.2151C6.1967 9.31683 5.69684 8.12286 5.69684 6.85427C5.69684 5.58568 6.1967 4.39171 7.10428 3.49347C8.01185 2.59523 9.21823 2.1005 10.5 2.1005C11.7818 2.1005 12.9881 2.59523 13.8957 3.49347C14.8033 4.39171 15.3032 5.58568 15.3032 6.85427C15.3032 8.12286 14.8033 9.31683 13.8957 10.2151C12.9881 11.1133 11.7818 11.608 10.5 11.608Z" fill="#868889"/>
</svg>
