<?xml version="1.0" encoding="utf-8"?>
<!-- Generator: Adobe Illustrator 26.0.1, SVG Export Plug-In . SVG Version: 6.00 Build 0)  -->
<svg version="1.1" id="Layer_1" xmlns="http://www.w3.org/2000/svg" xmlns:xlink="http://www.w3.org/1999/xlink" x="0px" y="0px"
	 viewBox="0 0 1080 1080" style="enable-background:new 0 0 1080 1080;" xml:space="preserve">
<g>
	<path d="M570.4,730.2c-76.9,0-153.9,0-230.8,0c-16.7,0-28.9-13.3-27.2-29.7c0.4-3.8,1.7-7.4,3.6-10.7
		c27.9-48.4,55.8-96.7,83.8-145.1c49.1-85,98.2-170.1,147.3-255.1c10.9-18.8,36.1-18.8,46.9,0c73.2,126.8,146.4,253.7,219.7,380.5
		c3.8,6.6,7.6,13.1,11.4,19.7c10.6,18.4-2.1,40.3-23.4,40.4C724.6,730.3,647.5,730.2,570.4,730.2z M570.5,710
		c67.4,0,134.9,0,202.3,0c9.6,0,19.2,0,28.7,0c5.9,0,8.8-5.1,5.8-10.2c-30.1-52.2-60.2-104.3-90.3-156.5c-43-74.5-86-149-129-223.5
		c-3.9-6.8-7.8-13.6-11.8-20.4c-2.8-4.7-8.5-4.7-11.3,0c-0.3,0.5-0.5,0.9-0.8,1.4c-30.3,52.4-60.6,104.9-90.8,157.3
		c-42.9,74.3-85.8,148.7-128.7,223c-3.7,6.4-7.4,12.8-11,19.2c-2.6,4.6,0.2,9.4,5.4,9.7c0.7,0,1.3,0,2,0
		C417.5,710,494,710,570.5,710z"/>
	<path d="M601.3,426.4c-0.6,6.2-1.4,13.6-2.2,21.1c-2.5,22.8-5,45.6-7.5,68.4c-2.7,24.4-5.3,48.8-8,73.2c-0.7,6.3-6.5,11-13.2,11
		c-6.6,0-12.4-4.7-13.1-10.9c-2.2-19.6-4.3-39.1-6.4-58.7c-2.3-21.4-4.7-42.8-7-64.2c-1.4-12.5-2.8-25-4-37.5
		c-1.1-11.7,2.2-22,10.6-30.4c13.2-13.3,33.9-10.6,44.5,5.5C599.2,410.2,601.3,417.3,601.3,426.4z"/>
	<path d="M570.7,665.3c-14.1,0-25.4-11.3-25.3-25.4c0-14.1,11.3-25.3,25.3-25.4c14,0,25.4,11.3,25.4,25.4
		C596,654,584.7,665.3,570.7,665.3z"/>
</g>
</svg>
