<svg width="517" height="456" viewBox="0 0 517 456" fill="none" xmlns="http://www.w3.org/2000/svg">
<path d="M258.4 455.2C181.5 455.2 104.5 455.2 27.6 455.2C10.9 455.2 -1.29999 441.9 0.400006 425.5C0.800006 421.7 2.10001 418.1 4.00001 414.8C31.9 366.4 59.8 318.1 87.8 269.7C136.9 184.7 186 99.6 235.1 14.6C246 -4.2 271.2 -4.2 282 14.6C355.2 141.4 428.4 268.3 501.7 395.1C505.5 401.7 509.3 408.2 513.1 414.8C523.7 433.2 511 455.1 489.7 455.2C412.6 455.3 335.5 455.2 258.4 455.2ZM258.5 435C325.9 435 393.4 435 460.8 435C470.4 435 480 435 489.5 435C495.4 435 498.3 429.9 495.3 424.8C465.2 372.6 435.1 320.5 405 268.3C362 193.8 319 119.3 276 44.8C272.1 38 268.2 31.2 264.2 24.4C261.4 19.7 255.7 19.7 252.9 24.4C252.6 24.9 252.4 25.3 252.1 25.8C221.8 78.2 191.5 130.7 161.3 183.1C118.4 257.4 75.5 331.8 32.6 406.1C28.9 412.5 25.2 418.9 21.6 425.3C19 429.9 21.8 434.7 27 435C27.7 435 28.3 435 29 435C105.5 435 182 435 258.5 435Z" fill="black"/>
<path d="M289.3 151.4C288.7 157.6 287.9 165 287.1 172.5C284.6 195.3 282.1 218.1 279.6 240.9C276.9 265.3 274.3 289.7 271.6 314.1C270.9 320.4 265.1 325.1 258.4 325.1C251.8 325.1 246 320.4 245.3 314.2C243.1 294.6 241 275.1 238.9 255.5C236.6 234.1 234.2 212.7 231.9 191.3C230.5 178.8 229.1 166.3 227.9 153.8C226.8 142.1 230.1 131.8 238.5 123.4C251.7 110.1 272.4 112.8 283 128.9C287.2 135.2 289.3 142.3 289.3 151.4Z" fill="black"/>
<path d="M258.7 390.3C244.6 390.3 233.3 379 233.4 364.9C233.4 350.8 244.7 339.6 258.7 339.5C272.7 339.5 284.1 350.8 284.1 364.9C284 379 272.7 390.3 258.7 390.3Z" fill="black"/>
</svg>
