<svg width="20" height="22" viewBox="0 0 20 22" fill="none" xmlns="http://www.w3.org/2000/svg">
<path d="M19.7699 15.2373C19.1488 14.2142 18.4013 12.2681 18.4013 8.82743V8.11521C18.4013 3.67141 14.6643 0.0300935 10.064 0H10.0008C8.89626 0.00131649 7.8028 0.209932 6.78285 0.613935C5.7629 1.01794 4.83645 1.60942 4.05639 2.3546C3.27633 3.09979 2.65793 3.98408 2.23651 4.957C1.8151 5.92992 1.59891 6.9724 1.60029 8.02493V8.82743C1.60029 12.2681 0.852876 14.2142 0.231784 15.2373C0.0815758 15.4812 0.00162547 15.7585 2.45251e-05 16.0412C-0.00157642 16.3239 0.0752289 16.6021 0.222667 16.8474C0.370106 17.0928 0.582945 17.2967 0.839646 17.4384C1.09635 17.5802 1.3878 17.6549 1.68451 17.6549H5.79003C5.79003 18.719 6.23366 19.7396 7.02334 20.4921C7.81302 21.2446 8.88405 21.6673 10.0008 21.6673C11.1176 21.6673 12.1886 21.2446 12.9783 20.4921C13.768 19.7396 14.2116 18.719 14.2116 17.6549H18.3171C18.6138 17.6567 18.9056 17.5833 19.1627 17.4423C19.4198 17.3013 19.633 17.0977 19.7804 16.8524C19.9265 16.6056 20.0024 16.3268 20.0006 16.0435C19.9987 15.7602 19.9192 15.4823 19.7699 15.2373ZM10.0008 20.0623C9.33161 20.0597 8.6906 19.8052 8.21739 19.3543C7.74419 18.9034 7.47712 18.2925 7.47435 17.6549H12.5273C12.5245 18.2925 12.2575 18.9034 11.7842 19.3543C11.311 19.8052 10.67 20.0597 10.0008 20.0623ZM1.68451 16.0499C2.41087 14.8461 3.28461 12.6292 3.28461 8.82743V8.02493C3.28184 7.1828 3.45351 6.34843 3.78979 5.56964C4.12607 4.79086 4.62035 4.08297 5.24428 3.48656C5.86822 2.89015 6.60954 2.41694 7.42576 2.09406C8.24199 1.77118 9.11706 1.60498 10.0008 1.60499H10.0535C13.7274 1.62505 16.717 4.55415 16.717 8.11521V8.82743C16.717 12.6292 17.5908 14.8461 18.3171 16.0499H1.68451Z" fill="#5E43C3"/>
</svg>
