<svg width="47" height="54" viewBox="0 0 47 54" fill="none" xmlns="http://www.w3.org/2000/svg">
<rect width="47" height="54" rx="6" fill="#5E43C3"/>
<path d="M23.0389 38.9784C22.8586 38.9351 22.6783 38.8991 22.4981 38.8414C20.9334 38.3727 19.9527 37.3488 19.5778 35.7552C19.5634 35.6831 19.5417 35.6182 19.5201 35.5245C19.4263 35.5245 19.3254 35.5245 19.2317 35.5245C17.393 35.5245 15.5615 35.5317 13.7228 35.5173C13.0233 35.5101 12.497 35.1784 12.1869 34.5511C11.8841 33.931 11.9562 33.3253 12.3528 32.7701C12.4537 32.6331 12.5835 32.5177 12.7061 32.4023C14.5376 30.7583 15.4461 28.7033 15.4605 26.2517C15.4677 25.0403 15.4461 23.8217 15.4677 22.6103C15.5326 19.3223 17.7463 16.3083 20.8685 15.2628C21.1425 15.169 21.2218 15.0464 21.2146 14.7724C21.2002 14.3038 21.1929 13.8351 21.2434 13.3736C21.366 12.2127 22.3611 11.3474 23.5292 11.3546C24.6829 11.3618 25.6707 12.2199 25.7861 13.3736C25.8366 13.8783 25.8221 14.3975 25.8149 14.9094C25.8149 15.0753 25.8582 15.1546 26.0312 15.2195C29.0741 16.3227 30.8912 18.4715 31.4752 21.6513C31.5618 22.1056 31.5618 22.5815 31.569 23.0502C31.5906 24.3697 31.5401 25.6965 31.6194 27.016C31.7492 29.0855 32.6433 30.8304 34.1504 32.2509C34.2513 32.3446 34.3523 32.4312 34.4532 32.5249C35.0084 33.0513 35.1743 33.7723 34.9075 34.4501C34.6407 35.1207 34.0206 35.5389 33.2635 35.5461C31.4464 35.5461 29.6293 35.5461 27.8123 35.5461C27.7257 35.5461 27.632 35.5461 27.5238 35.5461C27.495 35.6831 27.4662 35.8057 27.4301 35.9355C26.947 37.6084 25.8582 38.6106 24.1493 38.9495C24.0988 38.9567 24.0483 38.9856 24.0051 39C23.6806 38.9784 23.3633 38.9784 23.0389 38.9784ZM23.5292 34.378C23.5292 34.3708 23.5292 34.3708 23.5292 34.3636C24.6829 34.3636 25.8293 34.3636 26.983 34.3636C29.0453 34.3636 31.1003 34.3708 33.1625 34.378C33.4581 34.378 33.7177 34.3131 33.8403 34.0031C33.9485 33.7435 33.8691 33.5272 33.5879 33.2748C31.468 31.3784 30.4297 29.0061 30.4297 26.1652C30.4297 25.098 30.4369 24.0236 30.4297 22.9565C30.4297 22.5959 30.4153 22.2354 30.3648 21.8821C29.7519 17.7648 25.7861 15.1474 21.7482 16.1929C18.8134 16.95 16.6647 19.6756 16.6214 22.7113C16.607 24.0164 16.6431 25.3215 16.607 26.6194C16.5565 28.6312 15.9076 30.441 14.6457 32.0202C14.2636 32.4961 13.8093 32.9071 13.3839 33.3469C13.1964 33.5344 13.1027 33.7435 13.2036 34.0031C13.3046 34.2626 13.5065 34.3708 13.766 34.3852C13.8526 34.3924 13.9463 34.3852 14.0328 34.3852C17.1983 34.378 20.3637 34.378 23.5292 34.378ZM20.7315 35.5389C20.8613 36.7647 22.188 37.8463 23.5364 37.8319C24.892 37.8175 26.2115 36.7287 26.3052 35.5389C24.4521 35.5389 22.5918 35.5389 20.7315 35.5389ZM24.6684 14.8301C24.6684 14.4263 24.6829 14.0009 24.6684 13.5827C24.6468 12.9986 24.1998 12.5444 23.6013 12.4939C23.0749 12.4506 22.4981 12.8184 22.426 13.352C22.3611 13.8423 22.4115 14.347 22.4115 14.8229C23.1542 14.8301 23.8969 14.8301 24.6684 14.8301Z" fill="white"/>
</svg>
