<svg width="13" height="11" viewBox="0 0 13 11" fill="none" xmlns="http://www.w3.org/2000/svg">
<path d="M11.7963 1.69231H9.75L9.2625 0.32033C9.22882 0.226449 9.1671 0.145299 9.08577 0.0879661C9.00444 0.0306329 8.90747 -8.8033e-05 8.8081 1.89482e-07H4.1919C3.98877 1.89482e-07 3.80671 0.128434 3.739 0.32033L3.25 1.69231H1.2037C0.538657 1.69231 0 2.23324 0 2.9011V9.79121C0 10.4591 0.538657 11 1.2037 11H11.7963C12.4613 11 13 10.4591 13 9.79121V2.9011C13 2.23324 12.4613 1.69231 11.7963 1.69231ZM11.9167 9.79121C11.9167 9.85769 11.8625 9.91209 11.7963 9.91209H1.2037C1.1375 9.91209 1.08333 9.85769 1.08333 9.79121V2.9011C1.08333 2.83462 1.1375 2.78022 1.2037 2.78022H4.01285L4.27014 2.05797L4.6147 1.08791H8.3838L8.72836 2.05797L8.98565 2.78022H11.7963C11.8625 2.78022 11.9167 2.83462 11.9167 2.9011V9.79121ZM6.5 3.74725C5.16991 3.74725 4.09259 4.82912 4.09259 6.16483C4.09259 7.50055 5.16991 8.58242 6.5 8.58242C7.83009 8.58242 8.90741 7.50055 8.90741 6.16483C8.90741 4.82912 7.83009 3.74725 6.5 3.74725ZM6.5 7.61538C5.70255 7.61538 5.05556 6.96566 5.05556 6.16483C5.05556 5.36401 5.70255 4.71429 6.5 4.71429C7.29745 4.71429 7.94444 5.36401 7.94444 6.16483C7.94444 6.96566 7.29745 7.61538 6.5 7.61538Z" fill="#95D03A"/>
</svg>
