<svg width="35" height="31" viewBox="0 0 35 31" fill="none" xmlns="http://www.w3.org/2000/svg">
<rect width="35" height="31" rx="2" fill="#F0F9FB"/>
<path d="M15.1418 13.7136H16.2846M19.7131 18.2852H20.8559M20.8559 13.1422L15.1418 18.8567M17.2 8.33059L15.9098 9.61864C15.6983 9.83049 15.4114 9.9497 15.1121 9.95008H13.0802C12.7807 9.95008 12.4935 10.069 12.2818 10.2808C12.07 10.4926 11.9511 10.7798 11.9511 11.0793V13.1113C11.9507 13.4107 11.8315 13.6976 11.6197 13.9091L10.3306 15.2017C10.1189 15.4134 10 15.7006 10 16C10 16.2994 10.1189 16.5866 10.3306 16.7983L11.6219 18.0886C11.7267 18.1934 11.8098 18.3178 11.8664 18.4547C11.9231 18.5915 11.9522 18.7382 11.9522 18.8864V20.9185C11.9522 21.5425 12.4573 22.0476 13.0813 22.0476H15.1132C15.4127 22.0476 15.6995 22.1665 15.9109 22.3791L17.2023 23.6694C17.4141 23.8811 17.7012 24 18.0006 24C18.3 24 18.5871 23.8811 18.7988 23.6694L20.0891 22.3779C20.3007 22.1665 20.5876 22.0477 20.8868 22.0476H22.9187C23.2181 22.0476 23.5053 21.9287 23.7171 21.7169C23.9288 21.5051 24.0478 21.2179 24.0478 20.9185V18.8864C24.0478 18.5869 24.1666 18.3001 24.3792 18.0886L25.6694 16.7972C25.8811 16.5854 26 16.2983 26 15.9989C26 15.6994 25.8811 15.4123 25.6694 15.2005L24.3781 13.9102C24.1666 13.6986 24.0479 13.4116 24.0478 13.1125V11.0804C24.0478 10.7809 23.9288 10.4937 23.7171 10.2819C23.5053 10.0702 23.2181 9.95122 22.9187 9.95122H20.8868C20.5874 9.95084 20.3005 9.83163 20.0891 9.61978L18.7965 8.33059C18.5848 8.11891 18.2977 8 17.9983 8C17.6989 8 17.4118 8.11891 17.2 8.33059Z" stroke="#5E43C3" stroke-width="0.9"/>
</svg>
