<svg width="58" height="58" viewBox="0 0 58 58" fill="none" xmlns="http://www.w3.org/2000/svg">
<circle cx="29" cy="29" r="29" fill="#5E43C3"/>
<path d="M29.2557 34.9261C29.2848 34.9642 29.3218 34.9949 29.3642 35.0161C29.4065 35.0372 29.4529 35.0482 29.5 35.0482C29.5471 35.0482 29.5935 35.0372 29.6358 35.0161C29.6782 34.9949 29.7152 34.9642 29.7443 34.9261L34.0865 29.2903C34.2455 29.0835 34.102 28.7773 33.8422 28.7773H30.9694V15.3182C30.9694 15.1432 30.8298 15 30.6592 15H28.333C28.1624 15 28.0229 15.1432 28.0229 15.3182V28.7733H25.1578C24.898 28.7733 24.7545 29.0795 24.9135 29.2864L29.2557 34.9261ZM43.6898 33.5341H41.3636C41.193 33.5341 41.0535 33.6773 41.0535 33.8523V39.9773H17.9465V33.8523C17.9465 33.6773 17.807 33.5341 17.6364 33.5341H15.3102C15.1396 33.5341 15 33.6773 15 33.8523V41.7273C15 42.4312 15.5544 43 16.2406 43H42.7594C43.4456 43 44 42.4312 44 41.7273V33.8523C44 33.6773 43.8604 33.5341 43.6898 33.5341Z" fill="white"/>
</svg>
