<svg width="18" height="18" viewBox="0 0 18 18" fill="none" xmlns="http://www.w3.org/2000/svg">
<path d="M7.87767 18C7.55976 18 7.29308 17.892 7.07765 17.676C6.86222 17.46 6.75487 17.193 6.75562 16.875V10.125L0.247706 1.8C-0.0328074 1.425 -0.0750713 1.03125 0.120914 0.61875C0.3169 0.20625 0.658378 0 1.14535 0H16.8541C17.3403 0 17.6818 0.20625 17.8785 0.61875C18.0753 1.03125 18.033 1.425 17.7517 1.8L11.2438 10.125V16.875C11.2438 17.1937 11.1361 17.4611 10.9207 17.6771C10.7053 17.8931 10.4389 18.0007 10.1218 18H7.87767ZM8.99973 9.3375L14.5539 2.25H3.44556L8.99973 9.3375Z" fill="white"/>
</svg>
