<svg width="52" height="52" viewBox="0 0 52 52" fill="none" xmlns="http://www.w3.org/2000/svg">
<path d="M11.5557 14.5591H25.0371V18.7188H11.5557V14.5591Z" fill="#5E43C3"/>
<path d="M50.8714 10.3993L41.2418 0L38.5185 2.94093L44.2963 9.18052V18.7188C44.2973 19.8217 44.7035 20.8791 45.4256 21.6589C46.1477 22.4388 47.1269 22.8774 48.1481 22.8785V44.7171C48.1481 45.5445 47.8438 46.338 47.302 46.9231C46.7602 47.5082 46.0254 47.8369 45.2593 47.8369C44.4931 47.8369 43.7583 47.5082 43.2165 46.9231C42.6747 46.338 42.3704 45.5445 42.3704 44.7171V27.0382C42.3704 26.4866 42.1675 25.9576 41.8063 25.5676C41.4451 25.1775 40.9552 24.9584 40.4444 24.9584H32.7407V4.15973C32.7407 3.60812 32.5378 3.07909 32.1767 2.68904C31.8155 2.29899 31.3256 2.07986 30.8148 2.07986H5.77778C5.26699 2.07986 4.77712 2.29899 4.41594 2.68904C4.05476 3.07909 3.85185 3.60812 3.85185 4.15973V47.8369H0V51.9966H36.5926V47.8369H32.7407V29.1181H38.5185V44.5091C38.4958 46.2046 39.012 47.8572 39.9811 49.1914C40.9501 50.5256 42.3135 51.4607 43.8437 51.8406C44.8269 52.0663 45.8444 52.0521 46.8219 51.7991C47.7993 51.546 48.7122 51.0605 49.4937 50.3779C50.2753 49.6952 50.9059 48.8328 51.3395 47.8535C51.7731 46.8741 51.9987 45.8026 52 44.7171V13.3403C51.9998 12.2371 51.5938 11.1792 50.8714 10.3993ZM28.8889 47.8369H7.7037V6.23959H28.8889V47.8369Z" fill="#5E43C3"/>
</svg>
