<svg width="86" height="86" viewBox="0 0 86 86" fill="none" xmlns="http://www.w3.org/2000/svg">
<path d="M55.9 77.4H60.2V86H0V77.4H4.3V8.6C4.3 3.87 8.17 0 12.9 0H47.3C49.5809 0 51.7683 0.906069 53.3811 2.51888C54.9939 4.13169 55.9 6.31914 55.9 8.6V77.4ZM12.9 8.6V34.4H47.3V8.6H12.9ZM55.9 43H60.2C62.4809 43 64.6683 43.9061 66.2811 45.5189C67.8939 47.1317 68.8 49.3191 68.8 51.6V64.5C68.8 65.6404 69.253 66.7342 70.0594 67.5406C70.8658 68.347 71.9596 68.8 73.1 68.8C74.2404 68.8 75.3342 68.347 76.1406 67.5406C76.947 66.7342 77.4 65.6404 77.4 64.5V43L68.8 34.4V25.8L60.2 17.2L64.5 12.9L86 34.4V64.5C86 67.9213 84.6409 71.2025 82.2217 73.6217C79.8025 76.0409 76.5213 77.4 73.1 77.4C69.6787 77.4 66.3975 76.0409 63.9783 73.6217C61.5591 71.2025 60.2 67.9213 60.2 64.5V51.6H55.9V43Z" fill="#5E43C3"/>
</svg>
