<svg width="52" height="52" viewBox="0 0 52 52" fill="none" xmlns="http://www.w3.org/2000/svg">
<path d="M0 48.2857H14.8571V52H0V48.2857ZM27.8571 50.1429C27.5789 50.1427 27.3043 50.08 27.0536 49.9595C26.8029 49.8389 26.5824 49.6636 26.4086 49.4464L19.5371 40.8571H0V37.1429H20.4286C20.7068 37.143 20.9814 37.2057 21.2321 37.3262C21.4828 37.4468 21.7033 37.6221 21.8771 37.8393L27.7216 45.1416L37.4549 30.5407C37.6197 30.2936 37.8413 30.0897 38.1012 29.946C38.3612 29.8023 38.6518 29.723 38.9487 29.7148C39.2456 29.7066 39.5401 29.7697 39.8075 29.8989C40.075 30.0281 40.3075 30.2195 40.4857 30.4571L45.5 37.1429H52V40.8571H44.5714C44.2831 40.8571 43.9988 40.79 43.7409 40.6611C43.483 40.5321 43.2587 40.3449 43.0857 40.1143L39.0891 34.7843L29.4023 49.3164C29.2402 49.5595 29.023 49.7609 28.7684 49.9042C28.5138 50.0475 28.2289 50.1286 27.937 50.141L27.8571 50.1429ZM16.7143 26V16.7143H18.5714C20.5409 16.7118 22.4289 15.9284 23.8215 14.5358C25.2141 13.1432 25.9975 11.2551 26 9.28571V3.71429H20.4286C18.5268 3.7174 16.6995 4.45378 15.327 5.77014C14.3653 4.024 12.953 2.56766 11.2372 1.55281C9.52141 0.537966 7.56488 0.00174382 5.57143 0H0V5.57143C0.00344056 8.52564 1.17852 11.3579 3.26747 13.4468C5.35641 15.5358 8.18864 16.7108 11.1429 16.7143H13V26H0V29.7143H26V26H16.7143ZM20.4286 7.42857H22.2857V9.28571C22.2847 10.2705 21.8931 11.2147 21.1967 11.911C20.5004 12.6074 19.5562 12.999 18.5714 13H16.7143V11.1429C16.7153 10.1581 17.1069 9.2139 17.8033 8.51755C18.4996 7.8212 19.4438 7.42955 20.4286 7.42857ZM11.1429 13C9.17343 12.9975 7.28537 12.2141 5.89278 10.8215C4.50018 9.42891 3.71674 7.54085 3.71429 5.57143V3.71429H5.57143C7.54085 3.71674 9.42891 4.50018 10.8215 5.89278C12.2141 7.28537 12.9975 9.17343 13 11.1429V13H11.1429Z" fill="#5E43C3"/>
</svg>
