<svg width="35" height="31" viewBox="0 0 35 31" fill="none" xmlns="http://www.w3.org/2000/svg">
<rect width="35" height="31" rx="2" fill="#F0F9FB"/>
<path d="M11.0948 7.39327C11.2665 7.4286 11.4431 7.45384 11.6097 7.50936C11.7157 7.5447 11.7914 7.5447 11.8873 7.47403C13.1846 6.5705 14.6282 6.0304 16.203 5.88402C18.3786 5.68212 20.3825 6.19193 22.1996 7.41346C22.346 7.51441 22.4621 7.53965 22.6438 7.48412C23.2243 7.30746 23.7493 7.4387 24.1733 7.87279C24.5922 8.30689 24.7033 8.83689 24.5165 9.41232C24.4711 9.54861 24.4812 9.63947 24.5619 9.75556C26.7122 12.8649 26.7122 16.9636 24.5619 20.083C24.4812 20.1991 24.466 20.29 24.5115 20.4263C24.7033 21.0168 24.5872 21.5569 24.143 21.991C23.7038 22.4251 23.1738 22.5362 22.5883 22.3393C22.452 22.2939 22.3612 22.3141 22.2451 22.3898C19.1408 24.5401 15.032 24.5351 11.9226 22.3848C11.8066 22.304 11.7157 22.2939 11.5794 22.3393C10.9939 22.5311 10.4639 22.415 10.0247 21.9809C9.58054 21.5418 9.46949 21.0017 9.66635 20.4111C9.70673 20.2799 9.69664 20.1941 9.62092 20.083C7.46053 16.9484 7.46053 12.87 9.61588 9.74042C9.69159 9.63442 9.71178 9.54356 9.66131 9.41232C9.30797 8.43813 10.0399 7.41346 11.0948 7.39327ZM21.6242 14.9647C21.6192 14.2227 21.4677 13.5413 21.1497 12.8952C21.0993 12.7892 21.0437 12.7539 20.9175 12.7741C19.9585 12.9204 19.0903 12.0674 19.2266 11.1083C19.2468 10.9619 19.2114 10.8963 19.0802 10.8358C17.7375 10.2149 16.3999 10.2149 15.0623 10.8459C14.9462 10.9014 14.9109 10.9569 14.931 11.0881C15.0673 12.0775 14.2193 12.9103 13.2249 12.769C13.1189 12.7539 13.0685 12.7791 13.023 12.8801C12.3719 14.2429 12.3719 15.6007 13.023 16.9636C13.0685 17.0595 13.1189 17.0847 13.2249 17.0696C14.2446 16.9384 15.0623 17.751 14.931 18.7656C14.9159 18.8817 14.9462 18.9322 15.0471 18.9826C16.405 19.6287 17.7577 19.6287 19.1155 18.9826C19.2165 18.9322 19.2468 18.8817 19.2316 18.7656C19.0953 17.7662 19.9282 16.9283 20.9175 17.0696C21.0387 17.0847 21.0993 17.0595 21.1497 16.9484C21.4627 16.3175 21.6192 15.6462 21.6242 14.9647ZM19.4689 10.3512C20.2866 9.53851 21.0892 8.74603 21.8867 7.95356C19.0146 5.86888 14.9058 6.01021 12.2709 7.96365C13.0735 8.75613 13.8761 9.55366 14.6837 10.3562C16.2687 9.57385 17.8839 9.5688 19.4689 10.3512ZM10.1206 10.1139C8.0612 12.9457 8.14701 17.0494 10.1307 19.7347C10.9283 18.9271 11.7258 18.1245 12.5233 17.3169C11.7308 15.7168 11.7359 14.1066 12.5183 12.5368C11.7056 11.7191 10.9131 10.9165 10.1206 10.1139ZM24.0471 10.1038C23.2395 10.9165 22.4419 11.7241 21.6444 12.5267C22.4369 14.1319 22.4318 15.7421 21.6495 17.3119C22.4571 18.1296 23.2496 18.9322 24.042 19.7347C25.9298 17.1352 26.1822 13.1526 24.0471 10.1038ZM14.6989 19.4925C13.8811 20.3051 13.0786 21.0976 12.276 21.8901C15.1935 23.9899 19.2972 23.8082 21.8917 21.8749C21.0892 21.0774 20.2916 20.2849 19.484 19.4874C17.889 20.2748 16.2788 20.2748 14.6989 19.4925ZM11.0948 8.01917C10.7062 8.02927 10.4134 8.20089 10.2569 8.55927C10.1005 8.91261 10.1459 9.26089 10.4235 9.53851C11.2109 10.336 12.0034 11.1336 12.806 11.921C13.1795 12.2895 13.7247 12.2794 14.078 11.926C14.4414 11.5677 14.4515 11.0175 14.0729 10.6389C13.2906 9.84137 12.4981 9.05899 11.7056 8.27156C11.539 8.09994 11.3321 8.01413 11.0948 8.01917ZM23.0779 8.01917C22.8457 8.01413 22.6388 8.08479 22.4722 8.24632C21.6646 9.04385 20.862 9.84642 20.0645 10.654C19.7061 11.0225 19.7213 11.5626 20.0695 11.916C20.4229 12.2743 20.968 12.2945 21.3415 11.926C22.1492 11.1386 22.9467 10.336 23.7341 9.53347C24.0117 9.25585 24.0471 8.90756 23.8906 8.54918C23.7493 8.20089 23.4616 8.02927 23.0779 8.01917ZM10.9939 21.8194C11.322 21.8194 11.5289 21.7538 11.6905 21.5923C12.4981 20.7948 13.3057 19.9972 14.0931 19.1846C14.4566 18.811 14.4263 18.2608 14.0628 17.9125C13.7095 17.5693 13.1694 17.5643 12.8009 17.9226C12.0034 18.7101 11.2109 19.5026 10.4235 20.3051C10.1459 20.5828 10.1004 20.931 10.2519 21.2844C10.4084 21.6428 10.7062 21.8043 10.9939 21.8194ZM23.9815 20.8856C23.9865 20.6888 23.9108 20.4818 23.7493 20.3203C22.9467 19.5126 22.1391 18.705 21.3264 17.9025C21.1245 17.7005 20.862 17.6248 20.5794 17.6703C20.226 17.7308 19.9837 17.9327 19.8626 18.2659C19.7414 18.599 19.8071 18.9069 20.0443 19.1644C20.2563 19.3966 20.4834 19.6136 20.7055 19.8357C21.2759 20.4061 21.8413 20.9815 22.4167 21.5468C22.7044 21.8346 23.0527 21.8951 23.4262 21.7488C23.7796 21.6125 23.9815 21.2945 23.9815 20.8856Z" fill="#5E43C3"/>
</svg>
