<svg width="20" height="22" viewBox="0 0 20 22" fill="none" xmlns="http://www.w3.org/2000/svg">
<path d="M2.22222 22H17.7778C18.3671 22 18.9324 21.7682 19.3491 21.3557C19.7659 20.9431 20 20.3835 20 19.8001V9.90048C20.0008 9.75572 19.9728 9.61222 19.9175 9.4782C19.8622 9.34418 19.7807 9.22229 19.6778 9.11951L10.7889 0.319859C10.5807 0.114991 10.2991 0 10.0055 0C9.71201 0 9.43039 0.114991 9.22221 0.319859L0.333333 9.11951C0.228346 9.22138 0.144824 9.34287 0.0876058 9.47692C0.0303874 9.61098 0.000610277 9.75495 0 9.90048V19.8001C0 20.3835 0.234126 20.9431 0.650873 21.3557C1.06762 21.7682 1.63285 22 2.22222 22ZM7.77777 19.8001V14.3003H12.2222V19.8001H7.77777ZM2.22222 10.3515L9.99999 2.65177L17.7778 10.3515V19.8001H14.4444V14.3003C14.4444 13.7169 14.2103 13.1573 13.7936 12.7447C13.3768 12.3322 12.8116 12.1004 12.2222 12.1004H7.77777C7.1884 12.1004 6.62317 12.3322 6.20642 12.7447C5.78968 13.1573 5.55555 13.7169 5.55555 14.3003V19.8001H2.22222V10.3515Z" fill="#5E43C3"/>
</svg>
