<svg width="73" height="52" viewBox="0 0 73 52" fill="none" xmlns="http://www.w3.org/2000/svg">
<path d="M36.1296 43.8742C40.0298 42.1791 40.4073 31.6704 36.9727 20.4025C33.5382 9.13449 27.5923 1.37416 23.6921 3.06927C19.7919 4.76438 19.4144 15.273 22.8489 26.541C26.2834 37.809 32.2294 45.5693 36.1296 43.8742Z" stroke="#5E43C3" stroke-width="1.5" stroke-linecap="round" stroke-linejoin="round"/>
<path d="M36.1337 43.8668C37.8878 39.375 31.932 31.6255 22.8309 26.5579C13.7299 21.4902 4.93012 21.0234 3.17604 25.5152C1.42196 30.007 7.37783 37.7565 16.4789 42.8242C25.5799 47.8918 34.3797 48.3587 36.1337 43.8668Z" stroke="#5E43C3" stroke-width="1.5" stroke-linecap="round" stroke-linejoin="round"/>
<path d="M49.4039 26.5443C52.8384 15.2764 52.4609 4.76772 48.5607 3.07261C44.6605 1.3775 38.7145 9.13783 35.28 20.4058C31.8455 31.6738 32.223 42.1824 36.1232 43.8775C40.0234 45.5726 45.9694 37.8123 49.4039 26.5443Z" stroke="#5E43C3" stroke-width="1.5" stroke-linecap="round" stroke-linejoin="round"/>
<path d="M55.7792 42.8145C64.8802 37.7468 70.8361 29.9974 69.082 25.5055C67.3279 21.0137 58.5281 21.4805 49.4271 26.5482C40.3261 31.6159 34.3702 39.3654 36.1243 43.8572C37.8784 48.349 46.6782 47.8822 55.7792 42.8145Z" stroke="#5E43C3" stroke-width="1.5" stroke-linecap="round" stroke-linejoin="round"/>
</svg>
