<svg width="35" height="31" viewBox="0 0 35 31" fill="none" xmlns="http://www.w3.org/2000/svg">
<rect width="35" height="31" rx="2" fill="#F0F9FB"/>
<path d="M17.7614 7C17.9776 7.0946 18.1308 7.23424 18.1263 7.4955C18.1218 7.73875 17.9461 7.93695 17.6983 7.96398C17.6263 7.97299 17.5542 7.96848 17.4821 7.96848C16.0632 7.96848 14.6487 7.96398 13.2298 7.96848C12.2883 7.97299 11.5946 8.39642 11.1757 9.24328C11.0271 9.54509 10.973 9.86942 10.973 10.2073C10.973 13.7163 10.973 17.2254 10.973 20.7345C10.973 22.0318 11.919 22.9777 13.2208 22.9822C14.6262 22.9868 16.0362 22.9822 17.4416 22.9822C17.5362 22.9822 17.6308 22.9822 17.7209 23.0093C17.9371 23.0678 18.0722 23.2841 18.0542 23.5048C18.0362 23.7345 17.8605 23.9192 17.6308 23.9462C17.5857 23.9507 17.5407 23.9507 17.5001 23.9507C16.0587 23.9507 14.6217 23.9552 13.1803 23.9507C11.6397 23.9462 10.3739 22.9147 10.0721 21.4237C10.027 21.1939 10.009 20.9552 10.009 20.7164C10.0045 17.2254 10.018 13.7343 10 10.2388C9.99551 8.78832 10.9009 7.58109 12.1577 7.16667C12.3739 7.0946 12.6037 7.05405 12.8289 7C14.4731 7 16.1172 7 17.7614 7Z" fill="#5E43C3"/>
<path d="M24.0455 15.9641C23.9464 15.9641 23.8834 15.9641 23.8203 15.9641C20.6671 15.9641 17.5094 15.9641 14.3562 15.9641C14.2571 15.9641 14.158 15.9596 14.0634 15.9326C13.8472 15.874 13.712 15.6668 13.7255 15.4416C13.7391 15.2254 13.8967 15.0407 14.1129 15.0046C14.203 14.9911 14.2976 14.9866 14.3922 14.9866C17.5274 14.9866 20.6581 14.9866 23.7933 14.9866C23.8653 14.9866 23.9329 14.9866 24.05 14.9866C23.9825 14.9145 23.9464 14.874 23.9059 14.8335C23.2257 14.1533 22.55 13.4776 21.8698 12.7974C21.7572 12.6848 21.6626 12.5677 21.6626 12.3965C21.6626 12.2028 21.7437 12.0541 21.9104 11.9595C22.086 11.8604 22.2617 11.8739 22.4239 11.9911C22.4734 12.0271 22.5185 12.0676 22.559 12.1127C23.5365 13.0902 24.5185 14.0722 25.496 15.0497C25.7933 15.347 25.7933 15.5947 25.496 15.892C24.5095 16.8785 23.523 17.865 22.5365 18.8515C22.3923 19.0002 22.2302 19.0858 22.0185 19.0272C21.6671 18.9281 21.541 18.5137 21.7887 18.2344C21.9329 18.0677 22.095 17.9191 22.2527 17.7614C22.8068 17.2074 23.3608 16.6533 23.9149 16.0992C23.9509 16.0677 23.987 16.0272 24.0455 15.9641Z" fill="#5E43C3"/>
</svg>
