<svg width="35" height="31" viewBox="0 0 35 31" fill="none" xmlns="http://www.w3.org/2000/svg">
<rect width="35" height="31" rx="2" fill="#F0F9FB"/>
<path d="M17.5293 23.8413C17.4063 23.8118 17.2834 23.7872 17.1604 23.7479C16.0932 23.4282 15.4243 22.7298 15.1686 21.6429C15.1587 21.5938 15.144 21.5495 15.1292 21.4856C15.0653 21.4856 14.9964 21.4856 14.9325 21.4856C13.6784 21.4856 12.4292 21.4905 11.1751 21.4806C10.698 21.4757 10.339 21.2495 10.1275 20.8216C9.92093 20.3987 9.97011 19.9855 10.2406 19.6068C10.3095 19.5134 10.398 19.4347 10.4816 19.356C11.7308 18.2347 12.3505 16.833 12.3603 15.1609C12.3652 14.3346 12.3505 13.5035 12.3652 12.6772C12.4095 10.4346 13.9194 8.37878 16.0489 7.66565C16.2358 7.60171 16.2899 7.51811 16.285 7.33122C16.2751 7.01154 16.2702 6.69186 16.3046 6.3771C16.3883 5.58529 17.067 4.99511 17.8637 5.00003C18.6506 5.00495 19.3244 5.59021 19.4031 6.3771C19.4375 6.72137 19.4277 7.07548 19.4227 7.42466C19.4227 7.53778 19.4522 7.59188 19.5703 7.63614C21.6457 8.38861 22.8851 9.85421 23.2835 12.0231C23.3425 12.3329 23.3425 12.6575 23.3474 12.9772C23.3622 13.8772 23.3277 14.7822 23.3818 15.6822C23.4703 17.0937 24.0802 18.2839 25.1081 19.2527C25.1769 19.3167 25.2458 19.3757 25.3146 19.4396C25.6933 19.7986 25.8065 20.2905 25.6245 20.7528C25.4425 21.2101 25.0196 21.4954 24.5032 21.5003C23.2638 21.5003 22.0244 21.5003 20.7851 21.5003C20.726 21.5003 20.6621 21.5003 20.5883 21.5003C20.5687 21.5938 20.549 21.6774 20.5244 21.7659C20.1949 22.9069 19.4522 23.5905 18.2867 23.8217C18.2522 23.8266 18.2178 23.8463 18.1883 23.8561C17.967 23.8413 17.7506 23.8413 17.5293 23.8413ZM17.8637 20.7036C17.8637 20.6987 17.8637 20.6987 17.8637 20.6937C18.6506 20.6937 19.4326 20.6937 20.2195 20.6937C21.6261 20.6937 23.0277 20.6987 24.4343 20.7036C24.6359 20.7036 24.813 20.6593 24.8966 20.4478C24.9704 20.2708 24.9163 20.1232 24.7245 19.9511C23.2785 18.6576 22.5703 17.0396 22.5703 15.1018C22.5703 14.374 22.5753 13.6412 22.5703 12.9133C22.5703 12.6674 22.5605 12.4215 22.5261 12.1805C22.108 9.37224 19.4031 7.58696 16.6489 8.30009C14.6472 8.81649 13.1816 10.6755 13.1521 12.7461C13.1423 13.6362 13.1669 14.5264 13.1423 15.4117C13.1079 16.7838 12.6652 18.0183 11.8046 19.0954C11.5439 19.42 11.2341 19.7003 10.9439 20.0003C10.816 20.1282 10.7521 20.2708 10.8209 20.4478C10.8898 20.6249 11.0275 20.6987 11.2046 20.7085C11.2636 20.7134 11.3275 20.7085 11.3865 20.7085C13.5456 20.7036 15.7046 20.7036 17.8637 20.7036ZM15.9555 21.4954C16.044 22.3315 16.9489 23.0692 17.8686 23.0594C18.7932 23.0495 19.6932 22.3069 19.7572 21.4954C18.4932 21.4954 17.2243 21.4954 15.9555 21.4954ZM18.6408 7.37056C18.6408 7.09515 18.6506 6.80498 18.6408 6.51973C18.626 6.12136 18.3211 5.81152 17.9129 5.77709C17.5539 5.74758 17.1604 5.99841 17.1112 6.36235C17.067 6.69678 17.1014 7.04105 17.1014 7.36564C17.608 7.37056 18.1145 7.37056 18.6408 7.37056Z" fill="#5E43C3"/>
</svg>
