<svg width="35" height="31" viewBox="0 0 35 31" fill="none" xmlns="http://www.w3.org/2000/svg">
<rect width="35" height="31" rx="2" fill="#F0F9FB"/>
<path d="M12.2363 16.7416C12.5722 16.6442 12.8302 16.4641 13.0542 16.2401C13.5167 15.7776 14.0523 15.427 14.6901 15.2566C15.581 15.0132 16.4477 15.0814 17.2753 15.4952C17.7525 15.7386 18.2491 15.8506 18.7846 15.8311C19.2033 15.8165 19.6415 15.9042 20.0359 15.8019C20.4302 15.6997 20.7759 15.4271 21.1411 15.2177C21.7886 14.8477 22.4215 14.8574 23.035 15.2907C23.0739 15.3151 23.1469 15.3248 23.1908 15.3005C23.8626 14.9889 24.2765 15.0619 24.7974 15.5634C25.1042 15.5001 25.3817 15.4027 25.664 15.393C26.1509 15.3735 26.5404 15.6023 26.8277 15.9967C26.9883 16.2158 26.9737 16.3034 26.7498 16.4592C25.3281 17.4524 23.9016 18.4505 22.4799 19.4437C22.2803 19.5849 22.0758 19.7115 21.886 19.8624C20.9317 20.5976 19.8606 20.7388 18.7116 20.5197C17.7184 20.3298 16.7203 20.1448 15.7271 19.9598C15.4739 19.9111 15.2354 19.9549 15.0114 20.0961C14.5586 20.3931 14.1058 20.6852 13.6482 20.9725C13.5459 21.0358 13.5362 21.099 13.5654 21.2062C13.7163 21.6882 13.8575 22.1702 13.9987 22.6522C14.0669 22.881 13.989 22.9978 13.7504 22.9978C12.5381 23.0027 11.321 22.9978 10.1087 22.9978C9.93339 22.9978 9.84575 22.9199 9.82628 22.7349C9.66074 21.3279 9.49034 19.9208 9.31994 18.5138C9.2177 17.6569 9.11545 16.8 9.00834 15.9431C8.97426 15.6559 9.03756 15.578 9.32968 15.578C10.0941 15.578 10.8584 15.5828 11.6228 15.5731C11.8127 15.5731 11.9101 15.6413 11.9588 15.8263C12.0464 16.1379 12.1438 16.43 12.2363 16.7416ZM13.395 20.617C13.8721 20.3103 14.3347 20.0182 14.7923 19.7212C15.099 19.5216 15.435 19.4632 15.7855 19.5265C16.584 19.6725 17.3824 19.8283 18.1809 19.9793C18.7359 20.0815 19.2861 20.2276 19.8557 20.1789C20.3621 20.135 20.8635 20.0425 21.2871 19.7456C22.9327 18.6063 24.5735 17.4524 26.2191 16.3034C26.2775 16.2645 26.3359 16.2206 26.3895 16.1768C26.0974 15.8068 25.5764 15.7143 25.1285 15.9626C24.2327 16.4495 23.3417 16.9412 22.4507 17.4378C22.3972 17.467 22.3436 17.5449 22.3339 17.6131C22.3047 17.7737 22.2268 17.8516 22.0661 17.8468C21.92 17.8419 21.774 17.8322 21.6279 17.8273C20.6883 17.7932 19.7486 17.6958 18.809 17.837C18.6629 17.8565 18.5558 17.8078 18.5217 17.6569C18.4925 17.5254 18.5899 17.4135 18.7651 17.4086C19.4614 17.3843 20.1576 17.3648 20.8538 17.3599C21.1849 17.355 21.5208 17.3843 21.8519 17.4037C21.8081 16.8292 21.2482 16.3083 20.6396 16.2839C20.401 16.2742 20.1673 16.2791 19.9288 16.2791C19.6026 16.2791 19.2715 16.2645 18.9453 16.2839C18.2539 16.318 17.6259 16.1573 16.993 15.8701C15.8634 15.3492 14.7631 15.4806 13.7602 16.2206C13.3074 16.5566 12.9471 17.024 12.358 17.1798C12.7085 18.319 13.0493 19.4534 13.395 20.617ZM9.466 16.0259C9.72891 18.2168 9.98695 20.3834 10.245 22.5499C11.3404 22.5499 12.4213 22.5499 13.507 22.5499C13.4973 22.511 13.4924 22.4866 13.4826 22.4623C12.8546 20.3639 12.2265 18.2606 11.5985 16.1622C11.5644 16.0502 11.5108 16.0259 11.4037 16.0259C10.8925 16.0308 10.3813 16.0259 9.87497 16.0259C9.75325 16.0259 9.6218 16.0259 9.466 16.0259ZM21.9493 16.4836C22.0564 16.6783 22.1537 16.8536 22.2511 17.0337C22.9765 16.6345 23.6971 16.2401 24.4225 15.8409C24.2132 15.578 23.8383 15.466 23.5657 15.6072C23.0252 15.8896 22.4897 16.1914 21.9493 16.4836ZM22.6698 15.5926C22.2073 15.2469 21.4867 15.3638 20.9609 15.8409C21.1459 15.9334 21.3407 16.0308 21.5403 16.1184C21.5841 16.1379 21.6571 16.1427 21.701 16.1184C22.0174 15.9529 22.3339 15.7727 22.6698 15.5926Z" fill="#5E43C3"/>
<path d="M19.033 6.31779C21.2287 6.32753 23.0058 8.11433 22.996 10.3101C22.9863 12.4961 21.2044 14.2732 19.0183 14.2683C16.8128 14.2635 15.0358 12.4767 15.0504 10.2663C15.0601 8.08025 16.8421 6.30805 19.033 6.31779ZM19.0135 6.75597C17.0319 6.77544 15.474 8.35776 15.4886 10.3393C15.5032 12.2722 17.1098 13.8447 19.0573 13.8253C20.9999 13.8058 22.5773 12.204 22.5579 10.2663C22.5384 8.31881 20.9463 6.73649 19.0135 6.75597Z" fill="#5E43C3"/>
<path d="M11.7396 22.2724C11.3452 22.2724 11.019 21.9462 11.019 21.5518C11.019 21.1623 11.3501 20.8313 11.7396 20.8313C12.134 20.8313 12.4602 21.1623 12.4602 21.5518C12.4602 21.9462 12.134 22.2724 11.7396 22.2724ZM11.7396 21.2694C11.5838 21.2743 11.4524 21.4106 11.4572 21.5664C11.4621 21.7271 11.5984 21.8537 11.7542 21.8488C11.9149 21.8439 12.0366 21.7174 12.0317 21.5518C12.0269 21.3912 11.9003 21.2646 11.7396 21.2694Z" fill="#5E43C3"/>
<path d="M19.7631 11.1573C19.7583 10.8457 19.4808 10.5146 19.1059 10.388C19.0036 10.354 18.8916 10.3394 18.7894 10.3101C18.3366 10.1884 18.0202 9.80381 18.0104 9.36563C17.9958 8.84955 18.2685 8.42598 18.731 8.27992C18.8332 8.24583 18.8673 8.20202 18.8576 8.10464C18.8527 8.06083 18.8576 8.01701 18.8576 7.97806C18.8722 7.8466 18.9355 7.75897 19.0767 7.75897C19.2178 7.75897 19.3006 7.8466 19.286 7.97806C19.2617 8.18741 19.3542 8.26044 19.544 8.32373C19.8897 8.44058 20.1137 8.69862 20.2354 9.04916C20.2841 9.19036 20.2646 9.31207 20.1185 9.36563C19.9725 9.41918 19.88 9.34128 19.8264 9.20009C19.6609 8.78626 19.3006 8.59151 18.9014 8.68888C18.6287 8.75704 18.4681 8.97613 18.4486 9.29747C18.434 9.55551 18.5898 9.77946 18.843 9.8671C18.9452 9.90118 19.0572 9.92066 19.1594 9.945C19.7923 10.1105 20.2305 10.6607 20.1964 11.2449C20.1721 11.688 19.9141 12.0288 19.471 12.17C19.3444 12.2089 19.2714 12.2527 19.2909 12.4037C19.3103 12.5546 19.2519 12.6715 19.0815 12.6812C18.9452 12.6909 18.8576 12.5887 18.8624 12.4085C18.8673 12.2771 18.8235 12.2235 18.6969 12.1846C18.3074 12.0629 18.0153 11.8194 17.9082 11.4007C17.8644 11.2255 17.9374 11.094 18.0786 11.0794C18.2149 11.0648 18.2928 11.1378 18.3317 11.2644C18.4875 11.8048 19.1838 12.0044 19.5879 11.6101C19.6998 11.503 19.7437 11.3228 19.8167 11.1768C19.7923 11.1719 19.7777 11.1622 19.7631 11.1573Z" fill="#5E43C3"/>
</svg>
