<svg width="14" height="22" viewBox="0 0 14 22" fill="none" xmlns="http://www.w3.org/2000/svg">
<path d="M5 19H9V18H5V19ZM2 22C1.45 22 0.979002 21.804 0.587002 21.412C0.195002 21.02 -0.000664969 20.5493 1.69779e-06 20V2C1.69779e-06 1.45 0.196001 0.979002 0.588001 0.587002C0.980001 0.195002 1.45067 -0.000664969 2 1.69779e-06H12C12.55 1.69779e-06 13.021 0.196002 13.413 0.588002C13.805 0.980002 14.0007 1.45067 14 2V20C14 20.55 13.804 21.021 13.412 21.413C13.02 21.805 12.5493 22.0007 12 22H2ZM2 17V20H12V17H2ZM2 15H12V5H2V15ZM2 3H12V2H2V3Z" fill="#5E43C3"/>
</svg>
