<svg width="35" height="31" viewBox="0 0 35 31" fill="none" xmlns="http://www.w3.org/2000/svg">
<rect width="35" height="31" rx="2" fill="#F0F9FB"/>
<path d="M26.3217 11.6891C26.3217 12.8269 26.3391 13.9704 26.3159 15.1083C26.2869 16.9184 25.6541 18.539 24.6322 20.0216C23.4014 21.7973 21.7758 23.1534 19.9295 24.2568C19.2676 24.6533 18.5767 24.9981 17.8858 25.3486C17.7755 25.4061 17.5897 25.4176 17.4794 25.3716C15.4764 24.4292 13.6127 23.2511 12.051 21.6536C10.6866 20.2629 9.65316 18.6711 9.22933 16.7518C9.08999 16.1197 9.02032 15.4588 9.01451 14.8152C8.99129 12.5223 9.0029 10.2294 9.0029 7.93082C9.0029 7.55155 9.11321 7.45961 9.49059 7.51133C11.0117 7.72395 12.5212 7.75843 14.0075 7.28721C15.3893 6.85047 16.475 6.02297 17.3169 4.86791C17.5781 4.51163 17.7581 4.51163 18.0136 4.86217C19.2386 6.55165 20.9223 7.43087 23.0008 7.62051C23.9646 7.70671 24.9225 7.64924 25.8805 7.50558C26.1998 7.45961 26.3275 7.5573 26.3333 7.87911C26.3275 9.15484 26.3275 10.4248 26.3217 11.6891C26.3275 11.6891 26.3275 11.6891 26.3217 11.6891ZM9.61252 8.16643C9.61252 8.2239 9.60671 8.28711 9.60671 8.35032C9.60671 10.5053 9.6009 12.666 9.61252 14.8209C9.61252 15.2289 9.64735 15.6369 9.70541 16.0392C9.94345 17.654 10.6576 19.0619 11.6794 20.3261C13.2644 22.2857 15.308 23.6534 17.5665 24.7452C17.6304 24.774 17.7349 24.7682 17.8046 24.7395C18.0716 24.6188 18.3387 24.4809 18.6 24.343C20.5159 23.3201 22.2518 22.0731 23.6278 20.3779C24.9051 18.8033 25.7121 17.0449 25.7295 14.9933C25.7469 12.7522 25.7353 10.5053 25.7353 8.26412C25.7353 8.2239 25.7237 8.18367 25.7179 8.14345C25.6715 8.14345 25.6424 8.1377 25.6192 8.14345C24.609 8.27562 23.5988 8.3101 22.5886 8.17793C21.021 7.9768 19.6334 7.3964 18.4896 6.2988C18.2052 6.02872 17.9497 5.7299 17.6652 5.43107C17.6188 5.48279 17.5723 5.53451 17.5317 5.59198C17.1137 6.09767 16.6434 6.55165 16.1034 6.93667C14.7217 7.90784 13.1541 8.26412 11.4936 8.26412C10.8666 8.25838 10.2512 8.20091 9.61252 8.16643Z" fill="#5E43C3"/>
<path d="M20.3242 13.6372C20.5332 13.6372 20.7132 13.6314 20.8932 13.6372C21.2764 13.6487 21.5725 13.9187 21.5725 14.3038C21.5783 15.5105 21.5783 16.7116 21.5725 17.9183C21.5725 18.3091 21.2706 18.5907 20.8758 18.5907C18.7392 18.5907 16.6027 18.5907 14.4661 18.5907C14.0597 18.5907 13.7636 18.3034 13.7636 17.9011C13.7578 16.7116 13.7578 15.522 13.7636 14.3325C13.7636 13.9245 14.0539 13.6487 14.4661 13.6429C14.6403 13.6372 14.8087 13.6429 15.0177 13.6429C15.0177 13.2177 14.9945 12.8097 15.0235 12.4074C15.0467 12.0684 15.0874 11.7178 15.2035 11.4018C15.6331 10.2295 16.8756 9.53413 18.118 9.741C19.3663 9.94788 20.3068 11.0225 20.33 12.2752C20.33 12.712 20.3242 13.1545 20.3242 13.6372ZM17.6884 14.2348C16.6607 14.2348 15.6331 14.2406 14.6055 14.2291C14.4197 14.2291 14.3558 14.275 14.3616 14.4647C14.3732 15.5623 14.3732 16.6599 14.3616 17.7517C14.3616 17.9471 14.4197 17.9931 14.6055 17.9931C16.6491 17.9873 18.687 17.9873 20.7306 17.9931C20.9164 17.9931 20.9803 17.9471 20.9745 17.7517C20.9629 16.6541 20.9629 15.5565 20.9745 14.4647C20.9745 14.2693 20.9164 14.2233 20.7306 14.2291C19.7146 14.2406 18.7044 14.2348 17.6884 14.2348ZM15.5867 13.6199C16.9975 13.6199 18.3444 13.6199 19.7146 13.6199C19.7146 13.143 19.732 12.6832 19.7088 12.2178C19.6624 11.1891 18.8495 10.3789 17.8103 10.2984C16.8059 10.218 15.8479 10.8961 15.6679 11.8902C15.5751 12.4476 15.6157 13.028 15.5867 13.6199Z" fill="#5E43C3"/>
<path d="M17.3689 16.091C17.3689 15.9818 17.3573 15.8726 17.3689 15.7692C17.3863 15.5968 17.485 15.4934 17.665 15.4876C17.845 15.4876 17.9495 15.5968 17.9611 15.7634C17.9727 15.9933 17.9727 16.2232 17.9611 16.4473C17.9495 16.6197 17.845 16.7289 17.665 16.7289C17.485 16.7289 17.3863 16.6197 17.3689 16.453C17.3573 16.3381 17.3689 16.2117 17.3689 16.091Z" fill="#5E43C3"/>
</svg>
