<svg width="35" height="31" viewBox="0 0 35 31" fill="none" xmlns="http://www.w3.org/2000/svg">
<rect width="35" height="31" rx="2" fill="#F0F9FB"/>
<path d="M10.0102 25.0261C9.66475 25.0261 9.3454 25.0261 9.0065 25.0261C9.0065 24.9232 9.0065 24.8409 9.0065 24.7586C9.0065 23.3117 9.0065 21.8647 9.0065 20.4246C9.0065 18.2438 10.525 16.6391 12.5845 16.6391C15.5303 16.6323 18.4696 16.6323 21.4155 16.6391C23.4815 16.646 25 18.2438 25 20.4246C25 21.8715 25 23.3185 25 24.7586C25 24.8478 25 24.9369 25 25.0398C24.6546 25.0398 24.3418 25.0398 23.9963 25.0398C23.9963 24.9301 23.9963 24.8272 23.9963 24.7243C23.9963 23.3117 23.9963 21.899 23.9963 20.4931C23.9963 20.2806 23.9963 20.0611 23.9572 19.8554C23.7226 18.5387 22.7124 17.6884 21.3764 17.6884C18.4631 17.6884 15.5564 17.6884 12.6432 17.6884C12.4346 17.6884 12.2195 17.6952 12.011 17.7432C10.8053 18.0107 10.0232 19.0462 10.0167 20.3834C10.0102 21.8304 10.0167 23.2774 10.0167 24.7175C10.0102 24.8135 10.0102 24.9095 10.0102 25.0261Z" fill="#5E43C3"/>
<path d="M11.5027 9.79508C11.5223 13.0113 13.9793 15.583 17.0229 15.5692C20.0534 15.5555 22.517 12.9496 22.4974 9.76764C22.4844 6.55825 19.9883 3.96605 16.9382 4.00034C13.9467 4.03462 11.4832 6.65426 11.5027 9.79508ZM16.9773 5.06328C19.4669 5.05642 21.4873 7.15487 21.4938 9.74707C21.5003 12.3941 19.506 14.5132 17.0099 14.52C14.5268 14.5269 12.5129 12.4216 12.5064 9.79508C12.4999 7.19601 14.5072 5.07013 16.9773 5.06328Z" fill="#5E43C3"/>
<path d="M10.0103 25.0259C10.0103 24.9162 10.0103 24.8133 10.0103 24.7104C10.0103 23.2635 10.0038 21.8165 10.0103 20.3764C10.0169 19.0391 10.8055 18.0036 12.0046 17.7362C12.2067 17.6882 12.4217 17.6813 12.6368 17.6813C15.5501 17.6813 18.4568 17.6744 21.37 17.6813C22.7061 17.6813 23.7163 18.5317 23.9509 19.8483C23.99 20.0541 23.99 20.2735 23.99 20.4861C23.99 21.8988 23.99 23.3115 23.99 24.7173C23.99 24.8202 23.99 24.9162 23.99 25.0327C24.3354 25.0327 24.6482 25.0327 24.9937 25.0327C24.9937 24.9299 24.9937 24.8407 24.9937 24.7516C24.9937 23.3046 24.9937 21.8576 24.9937 20.4175C24.9937 18.2436 23.4751 16.6389 21.4091 16.6321C18.4633 16.6252 15.524 16.6252 12.5782 16.6321C10.5122 16.6389 9.00016 18.2436 9.00016 20.4175C9.00016 21.8645 9.00016 23.3115 9.00016 24.7516C9.00016 24.8339 9.00016 24.9162 9.00016 25.019C9.34557 25.0259 9.66492 25.0259 10.0103 25.0259Z" fill="#5E43C3"/>
</svg>
