<svg width="35" height="31" viewBox="0 0 35 31" fill="none" xmlns="http://www.w3.org/2000/svg">
<rect width="35" height="31" rx="2" fill="#F0F9FB"/>
<path d="M11.1429 18.2857V19.4286H13.7634L10 23.192L10.808 24L14.5714 20.2366V22.8571H15.7143V18.2857H11.1429ZM26 9.14286H22V10.2857H24.0491L19.7143 14.6206L17.2611 12.1674C17.154 12.0603 17.0087 12.0001 16.8571 12.0001C16.7056 12.0001 16.5603 12.0603 16.4531 12.1674L13.4286 15.192L14.2366 16L16.8571 13.3794L19.3103 15.8326C19.4174 15.9397 19.5628 15.9999 19.7143 15.9999C19.8658 15.9999 20.0111 15.9397 20.1183 15.8326L24.8571 11.0937V13.1429H26V9.14286ZM18 22.8571H26V24H18V22.8571ZM10 8H11.1429V16H10V8Z" fill="#5E43C3"/>
</svg>
