<svg width="52" height="52" viewBox="0 0 52 52" fill="none" xmlns="http://www.w3.org/2000/svg">
<path d="M52 16.7143V1.85714C52 1.3646 51.8043 0.892226 51.4561 0.543944C51.1078 0.195663 50.6354 0 50.1429 0H31.5714C31.0789 0 30.6065 0.195663 30.2582 0.543944C29.9099 0.892226 29.7143 1.3646 29.7143 1.85714V16.7143C29.7184 19.3452 30.6527 21.89 32.352 23.8985C34.0513 25.9071 36.4061 27.2501 39 27.69V48.2857H31.5714V52H50.1429V48.2857H42.7143V27.69C45.3082 27.2501 47.663 25.9071 49.3623 23.8985C51.0615 21.89 51.9959 19.3452 52 16.7143ZM33.4286 16.7143V3.71429H48.2857V16.7143C48.2857 18.6845 47.5031 20.574 46.1099 21.9671C44.7168 23.3602 42.8273 24.1429 40.8571 24.1429C38.887 24.1429 36.9975 23.3602 35.6044 21.9671C34.2112 20.574 33.4286 18.6845 33.4286 16.7143ZM18.5714 0V16.7514C18.5695 18.7013 17.794 20.5708 16.4152 21.9495C15.0365 23.3283 13.167 24.1037 11.2171 24.1057C9.24766 24.123 7.35171 23.3585 5.94517 21.9798C4.53863 20.6011 3.73634 18.7209 3.71429 16.7514V0H0V16.7514C0.0182732 19.3695 0.959522 21.8972 2.65806 23.8896C4.35659 25.882 6.70352 27.2113 9.28571 27.6436V52H13V27.6621C15.5892 27.2377 17.9436 25.908 19.6441 23.91C21.3446 21.9119 22.2807 19.3751 22.2857 16.7514V0H18.5714Z" fill="#5E43C3"/>
<path d="M9.28564 0H12.9999V18.5343H9.28564V0Z" fill="#5E43C3"/>
</svg>
