<svg width="19" height="20" viewBox="0 0 19 20" fill="none" xmlns="http://www.w3.org/2000/svg">
<path d="M8.0005 14.8765C8.78843 14.8765 9.56865 14.7213 10.2966 14.4198C11.0246 14.1182 11.686 13.6763 12.2431 13.1191C12.8003 12.562 13.2423 11.9005 13.5438 11.1726C13.8453 10.4446 14.0005 9.66441 14.0005 8.87648C14.0005 8.08855 13.8453 7.30833 13.5438 6.58038C13.2423 5.85243 12.8003 5.19099 12.2431 4.63384C11.686 4.07669 11.0246 3.63473 10.2966 3.3332C9.56865 3.03167 8.78843 2.87648 8.0005 2.87648C6.4092 2.87648 4.88308 3.50862 3.75786 4.63384C2.63264 5.75906 2.0005 7.28518 2.0005 8.87648C2.0005 10.4678 2.63264 11.9939 3.75786 13.1191C4.88308 14.2443 6.4092 14.8765 8.0005 14.8765ZM14.3205 13.7825L17.9005 17.3625C17.9959 17.4548 18.072 17.5652 18.1244 17.6872C18.1767 17.8093 18.2042 17.9405 18.2052 18.0733C18.2063 18.2061 18.1809 18.3377 18.1305 18.4606C18.0802 18.5835 18.0058 18.695 17.9119 18.7889C17.8179 18.8827 17.7062 18.9569 17.5833 19.0071C17.4604 19.0573 17.3287 19.0825 17.1959 19.0812C17.0631 19.08 16.9319 19.0523 16.8099 18.9998C16.688 18.9473 16.5777 18.8711 16.4855 18.7755L12.9055 15.1955C11.298 16.4433 9.2753 17.0316 7.24926 16.8407C5.22322 16.6497 3.34611 15.6938 2.00005 14.1675C0.654 12.6413 -0.0598121 10.6594 0.00392902 8.6254C0.0676701 6.59138 0.904173 4.6581 2.34315 3.21913C3.78213 1.78015 5.7154 0.943647 7.74943 0.879906C9.78345 0.816165 11.7653 1.52998 13.2916 2.87603C14.8178 4.22208 15.7737 6.09919 15.9647 8.12523C16.1557 10.1513 15.5674 12.1739 14.3195 13.7815L14.3205 13.7825Z" fill="#181B19"/>
</svg>
