<svg width="58" height="58" viewBox="0 0 58 58" fill="none" xmlns="http://www.w3.org/2000/svg">
<circle cx="29" cy="29" r="29" fill="#5E43C3"/>
<path d="M37.6667 34.4286C36.6375 34.4286 35.6878 34.7857 34.9439 35.3821L27.4617 30.0286C27.587 29.3485 27.587 28.6515 27.4617 27.9714L34.9439 22.6179C35.6878 23.2143 36.6375 23.5714 37.6667 23.5714C40.0572 23.5714 42 21.65 42 19.2857C42 16.9214 40.0572 15 37.6667 15C35.2761 15 33.3333 16.9214 33.3333 19.2857C33.3333 19.7 33.3911 20.0964 33.5031 20.475L26.3964 25.5643C25.3419 24.1821 23.6664 23.2857 21.7778 23.2857C18.5856 23.2857 16 25.8429 16 29C16 32.1571 18.5856 34.7143 21.7778 34.7143C23.6664 34.7143 25.3419 33.8179 26.3964 32.4357L33.5031 37.525C33.3911 37.9036 33.3333 38.3036 33.3333 38.7143C33.3333 41.0786 35.2761 43 37.6667 43C40.0572 43 42 41.0786 42 38.7143C42 36.35 40.0572 34.4286 37.6667 34.4286ZM37.6667 17.4286C38.7031 17.4286 39.5444 18.2607 39.5444 19.2857C39.5444 20.3107 38.7031 21.1429 37.6667 21.1429C36.6303 21.1429 35.7889 20.3107 35.7889 19.2857C35.7889 18.2607 36.6303 17.4286 37.6667 17.4286ZM21.7778 32.1429C20.0264 32.1429 18.6 30.7321 18.6 29C18.6 27.2679 20.0264 25.8571 21.7778 25.8571C23.5292 25.8571 24.9556 27.2679 24.9556 29C24.9556 30.7321 23.5292 32.1429 21.7778 32.1429ZM37.6667 40.5714C36.6303 40.5714 35.7889 39.7393 35.7889 38.7143C35.7889 37.6893 36.6303 36.8571 37.6667 36.8571C38.7031 36.8571 39.5444 37.6893 39.5444 38.7143C39.5444 39.7393 38.7031 40.5714 37.6667 40.5714Z" fill="white"/>
</svg>
