<svg width="52" height="52" viewBox="0 0 52 52" fill="none" xmlns="http://www.w3.org/2000/svg">
<path d="M48.986 27.9303L51.9786 11.5498C52.0148 11.3383 52.005 11.1216 51.95 10.9143C51.8949 10.707 51.796 10.5139 51.6597 10.3482C51.5252 10.1783 51.3536 10.0414 51.158 9.94786C50.9625 9.85436 50.7481 9.80677 50.5314 9.80873H10.5478L9.27226 2.82001C9.13369 2.02975 8.7207 1.31368 8.10599 0.797852C7.49128 0.282023 6.71425 -0.000505035 5.91168 6.77725e-07H1.47179C1.08145 6.77725e-07 0.70709 0.155013 0.431077 0.430937C0.155063 0.706861 0 1.08109 0 1.47131C0 1.86153 0.155063 2.23576 0.431077 2.51168C0.70709 2.78761 1.08145 2.94262 1.47179 2.94262H5.91168C6.02223 2.94592 6.12843 2.98648 6.21303 3.0577C6.29763 3.12892 6.35568 3.22662 6.37775 3.33497L13.1725 40.6572C12.3323 41.3331 11.6772 42.211 11.2686 43.2088C10.86 44.2065 10.7111 45.2916 10.836 46.3625C10.9609 47.4334 11.3554 48.4552 11.9826 49.3322C12.6098 50.2093 13.4493 50.913 14.4225 51.3776C15.3958 51.8423 16.4709 52.0525 17.5476 51.9889C18.6242 51.9252 19.6671 51.5896 20.5787 51.0135C21.4903 50.4374 22.2409 49.6396 22.7603 48.6948C23.2797 47.7499 23.5509 46.6887 23.5486 45.6106C23.5535 44.3929 23.2041 43.2002 22.5429 42.1775H37.3098C36.6486 43.2002 36.2992 44.3929 36.3041 45.6106C36.3041 46.8716 36.6781 48.1042 37.3789 49.1527C38.0797 50.2012 39.0758 51.0184 40.2412 51.5009C41.4066 51.9835 42.6889 52.1098 43.9261 51.8637C45.1632 51.6177 46.2996 51.0105 47.1916 50.1189C48.0835 49.2272 48.691 48.0912 48.937 46.8544C49.1831 45.6177 49.0568 44.3357 48.5741 43.1707C48.0914 42.0057 47.2739 41.01 46.2251 40.3094C45.1763 39.6088 43.9432 39.2349 42.6818 39.2349H15.8953L14.6443 32.3688H43.6876C44.9507 32.3658 46.1728 31.92 47.141 31.109C48.1092 30.298 48.7621 29.1731 48.986 27.9303ZM20.605 45.6106C20.605 46.2896 20.4036 46.9533 20.0263 47.5179C19.6489 48.0824 19.1126 48.5225 18.4851 48.7823C17.8575 49.0421 17.167 49.1101 16.5009 48.9777C15.8347 48.8452 15.2228 48.5182 14.7425 48.0381C14.2623 47.558 13.9352 46.9463 13.8027 46.2803C13.6702 45.6144 13.7382 44.9241 13.9981 44.2968C14.258 43.6695 14.6982 43.1333 15.2629 42.7561C15.8277 42.3789 16.4916 42.1775 17.1709 42.1775C18.0817 42.1775 18.9552 42.5392 19.5992 43.183C20.2432 43.8269 20.605 44.7001 20.605 45.6106ZM46.116 45.6106C46.116 46.2896 45.9146 46.9533 45.5373 47.5179C45.1599 48.0824 44.6236 48.5225 43.996 48.7823C43.3685 49.0421 42.678 49.1101 42.0119 48.9777C41.3457 48.8452 40.7338 48.5182 40.2535 48.0381C39.7732 47.558 39.4462 46.9463 39.3137 46.2803C39.1811 45.6144 39.2492 44.9241 39.5091 44.2968C39.769 43.6695 40.2092 43.1333 40.7739 42.7561C41.3387 42.3789 42.0026 42.1775 42.6818 42.1775C43.5926 42.1775 44.4661 42.5392 45.1102 43.183C45.7542 43.8269 46.116 44.7001 46.116 45.6106ZM11.0875 12.7513H48.7652L46.0915 27.4154C45.9884 27.9783 45.6917 28.4875 45.2527 28.8547C44.8137 29.2219 44.26 29.4241 43.6876 29.4262H14.1292L11.0875 12.7513Z" fill="#5E43C3"/>
</svg>
