<svg width="36" height="31" viewBox="0 0 36 31" fill="none" xmlns="http://www.w3.org/2000/svg">
<rect x="0.211914" width="35.5303" height="31" rx="2" fill="#F0F9FB"/>
<path d="M9 7.2027C9.08433 7.04955 9.21083 7 9.38886 7C12.7621 7.0045 16.1307 7 19.5039 7.00901C19.621 7.00901 19.7616 7.06306 19.8459 7.13514C20.7782 7.93694 21.7059 8.74775 22.6382 9.54955C22.7647 9.65766 22.7975 9.78829 22.7975 9.94144C22.7975 11.8694 22.7975 13.7928 22.7975 15.7207C22.7975 15.7928 22.7975 15.8649 22.7975 15.9009C23.1489 15.9009 23.4862 15.8874 23.8235 15.9054C25.3837 15.991 26.7564 17.2207 26.9625 18.7117C26.9719 18.7658 26.9859 18.8198 27 18.8739C27 19.0856 27 19.3018 27 19.5135C26.9906 19.5495 26.9719 19.5856 26.9672 19.6261C26.7751 20.973 25.7585 22.0586 24.3904 22.3919C23.8704 22.518 23.3503 22.5135 22.8022 22.4189C22.8022 22.491 22.8022 22.5495 22.8022 22.6126C22.8022 22.9505 22.8022 23.2883 22.8022 23.6216C22.8022 23.9054 22.7038 23.9955 22.4133 23.9955C18.075 23.9955 13.7366 23.9955 9.39823 24C9.2202 24 9.0937 23.9504 9.00937 23.7973C9 18.2613 9 12.7342 9 7.2027ZM9.595 7.57207C9.595 12.8649 9.595 18.1396 9.595 23.4189C13.8022 23.4189 18 23.4189 22.2119 23.4189C22.2119 23.0766 22.2025 22.7387 22.2166 22.4054C22.2212 22.2748 22.1744 22.2162 22.0526 22.1532C20.8017 21.5315 20.1036 20.545 20.1036 19.1892C20.1036 17.8243 20.797 16.8333 22.0573 16.2117C22.1744 16.1532 22.2166 16.0991 22.2166 15.973C22.2119 14.0721 22.2119 12.1757 22.2119 10.2748C22.2119 10.2162 22.2119 10.1577 22.2119 10.0901C22.1135 10.0901 22.0432 10.0901 21.9729 10.0901C21.214 10.0901 20.4503 10.0901 19.6913 10.0901C19.4008 10.0901 19.3024 9.9955 19.3024 9.71171C19.3024 9.05856 19.3024 8.40991 19.3024 7.75676C19.3024 7.6982 19.3024 7.63964 19.3024 7.57207C16.0557 7.57207 12.8324 7.57207 9.595 7.57207ZM26.4097 19.1892C26.4144 17.6802 25.1307 16.4459 23.5518 16.4414C21.9636 16.4369 20.6705 17.6712 20.6705 19.1847C20.6705 20.6892 21.9542 21.9279 23.5284 21.9324C25.1119 21.9414 26.405 20.7072 26.4097 19.1892ZM19.9021 7.92342C19.9021 8.48198 19.9021 9 19.9021 9.51802C20.5112 9.51802 21.1062 9.51802 21.734 9.51802C21.1156 8.98198 20.5206 8.46396 19.9021 7.92342Z" fill="#5E43C3"/>
<path d="M14.9954 15.0036C16.1948 15.0036 17.3987 15.0036 18.5982 15.0036C18.6511 15.0036 18.7085 14.9955 18.7614 15.0116C18.9025 15.0518 19.0083 15.2688 18.9995 15.5098C18.9907 15.767 18.9157 15.9437 18.7702 15.9839C18.7129 16 18.6511 16 18.5894 16C16.1948 16 13.7959 16 11.4013 16C11.3616 16 11.3219 16 11.2867 16C11.1059 15.9759 11 15.783 11 15.4937C11 15.2045 11.1103 15.0036 11.2911 15.0036C11.7409 14.9955 12.1951 15.0036 12.6449 15.0036C13.4299 15.0036 14.2148 15.0036 14.9954 15.0036Z" fill="#5E43C3"/>
<path d="M16.1045 12.0263C17.2996 12.0263 17.3991 12.002 18.5943 12.002C18.656 12.002 18.7178 11.9939 18.7751 12.0101C18.9206 12.0587 19 12.2287 19 12.496C19 12.7551 18.9206 12.9332 18.7751 12.9818C18.7222 12.998 18.6648 12.998 18.6119 12.998C16.204 12.998 13.796 12.998 11.3881 12.998C11.3352 12.998 11.2778 13.0061 11.2249 12.9899C11.0794 12.9413 11 12.7794 11 12.5121C11 12.2449 11.0794 12.0749 11.2205 12.0263C11.2778 12.002 11.3396 12.0182 11.4013 12.0182C12.6053 12.002 14.9005 12.0263 16.1045 12.0263Z" fill="#5E43C3"/>
<path d="M16.1045 18.0263C17.2996 18.0263 17.3991 18.002 18.5943 18.002C18.656 18.002 18.7178 17.9939 18.7751 18.0101C18.9206 18.0587 19 18.2287 19 18.496C19 18.7551 18.9206 18.9332 18.7751 18.9818C18.7222 18.998 18.6648 18.998 18.6119 18.998C16.204 18.998 13.796 18.998 11.3881 18.998C11.3352 18.998 11.2778 19.0061 11.2249 18.9899C11.0794 18.9413 11 18.7794 11 18.5121C11 18.2449 11.0794 18.0749 11.2205 18.0263C11.2778 18.002 11.3396 18.0182 11.4013 18.0182C12.6053 18.002 14.9005 18.0263 16.1045 18.0263Z" fill="#5E43C3"/>
</svg>
