<svg width="372" height="369" viewBox="0 0 372 369" fill="none" xmlns="http://www.w3.org/2000/svg">
<path d="M0.100006 175.568C1.00001 168.368 1.79999 161.168 2.89999 154.068C6.19999 133.568 13.1 114.368 23.1 96.2678C36.9 71.1678 55.6 50.4678 78.9 33.8678C100.2 18.7678 123.7 8.7678 149.3 3.7678C197.8 -5.7322 243.1 2.76781 285.1 28.8678C286.2 29.5678 287.4 30.2678 288.5 30.9678C288.7 31.0678 289 31.0678 289.4 31.1678C292.8 26.1678 296.3 21.1678 299.9 16.0678C300.7 14.9678 301.4 13.8678 302.4 12.9678C304.8 10.7678 307.1 11.0678 308.6 13.8678C309.2 14.8678 309.5 16.0678 309.9 17.2678C314.2 32.5678 318.5 47.9678 322.7 63.2678C324.9 71.1678 321.7 75.4678 313.5 76.1678C298.1 77.4678 282.7 78.8678 267.3 80.2678C266.9 80.2678 266.6 80.4678 266.2 80.3678C264 79.7678 260.7 79.8678 259.8 78.3678C259 77.0678 260.1 73.8678 261.2 71.9678C264.5 66.5678 268.3 61.3678 272 55.9678C261.5 48.8678 250.4 43.2678 238.7 39.0678C217.1 31.2678 194.9 28.3678 172 30.4678C143.1 33.1678 116.7 42.7678 93.4 60.1678C62.5 83.2678 42.5 113.568 33.8 151.268C29.6 169.268 28.9 187.368 31.5 205.668C37.2 246.968 56.1 281.068 88.6 307.268C108.7 323.468 131.6 333.768 157 338.768C166.5 340.668 171.8 347.968 170.1 356.368C168.4 364.768 160.7 369.968 152.2 368.168C93.6 356.268 49.8 323.968 21.2 271.568C9.00001 249.168 2.50001 224.868 0.600006 199.268C0.500006 198.368 0.2 197.468 0 196.468C0.1 189.568 0.100006 182.568 0.100006 175.568Z" fill="black"/>
<path d="M164.7 135.667C164.7 116.467 164.7 97.2669 164.7 77.9669C164.7 70.7669 169 65.7668 175.4 65.1668C182.6 64.4668 188.4 69.4669 188.8 76.7669C188.9 77.9669 188.8 79.1669 188.8 80.3669C188.8 113.267 188.8 146.167 188.7 178.967C188.7 181.867 189.6 183.167 192.1 184.467C222.8 200.267 253.5 216.167 284.1 231.967C290.7 235.367 293.3 240.167 291.9 246.267C290.3 253.167 283.2 257.167 276.5 254.967C275 254.467 273.6 253.767 272.2 253.067C237.5 235.067 202.7 217.067 167.9 199.267C165.4 197.967 164.5 196.567 164.6 193.767C164.7 174.367 164.7 154.967 164.7 135.667Z" fill="black"/>
<path d="M301.1 296.268C301.1 296.168 301.1 296.068 301.1 295.868C301.3 286.468 313.6 273.368 322.3 273.368C333.7 273.268 341.1 285.668 335.2 295.468C332.6 299.768 329.3 303.768 325.7 307.268C321.3 311.668 315.7 312.468 309.9 309.968C304.1 307.368 301.2 302.668 301.1 296.268Z" fill="black"/>
<path d="M241.8 351.367C241.8 357.967 237.8 363.567 231.4 365.467C227.1 366.767 222.7 367.667 218.3 368.267C210.7 369.267 203.8 364.067 202.1 356.367C200.6 349.267 204.8 341.667 211.9 339.467C216 338.167 220.3 337.167 224.6 336.667C234.1 335.367 241.8 342.167 241.8 351.367Z" fill="black"/>
<path d="M363.6 239.569C362.1 243.269 360.2 249.769 356.8 255.469C353.5 261.069 345.7 262.569 339.7 260.069C333.2 257.269 329.3 250.769 330.8 244.069C331.9 239.069 333.6 234.069 335.8 229.469C338.7 223.269 346 220.469 352.7 222.169C359.2 223.869 363.7 229.869 363.6 239.569Z" fill="black"/>
<path d="M346.2 146.769C341.4 146.469 336.8 143.669 334.3 137.869C332.7 133.969 331.2 129.969 330 125.969C327.9 118.769 331.7 111.369 338.6 108.469C345.5 105.669 353.6 108.169 357 114.769C359.4 119.469 361.3 124.569 362.5 129.669C364.6 138.569 356.9 147.069 346.2 146.769Z" fill="black"/>
<path d="M371.8 184.569C371.5 187.469 371.6 190.369 370.9 193.169C369.3 200.069 362.5 204.869 355.9 204.269C348 203.469 342.3 197.969 341.9 190.369C341.7 186.669 341.7 182.869 341.8 179.169C342 170.669 348.2 164.369 356.3 164.169C364.3 163.969 370.9 170.169 371.6 178.569C371.8 180.569 371.6 182.669 371.6 184.669C371.6 184.569 371.7 184.569 371.8 184.569Z" fill="black"/>
<path d="M273.1 348.27C265 348.37 259.3 344.37 257.2 338.47C255.1 332.47 256.9 325.67 262 321.97C265.8 319.17 269.8 316.67 274 314.57C279.5 311.67 286.6 313.27 290.9 317.87C295.3 322.57 296.6 329.97 293 335.27C287.9 342.67 280.1 346.27 273.1 348.27Z" fill="black"/>
</svg>
