<svg width="28" height="24" viewBox="0 0 28 24" fill="none" xmlns="http://www.w3.org/2000/svg">
<path d="M25.1429 9.25V2.83333C25.1429 2.3471 24.9472 1.88079 24.5989 1.53697C24.2506 1.19315 23.7783 1 23.2857 1L2.85714 1C2.3646 1 1.89223 1.19315 1.54394 1.53697C1.19566 1.88079 1 2.3471 1 2.83333L1 21.1667C1 21.6529 1.19566 22.1192 1.54394 22.463C1.89223 22.8068 2.3646 23 2.85714 23H23.2857C23.7783 23 24.2506 22.8068 24.5989 22.463C24.9472 22.1192 25.1429 21.6529 25.1429 21.1667V14.75M26.87 8.33333L17.7143 8.33333C16.7292 8.33333 15.7845 8.71964 15.0879 9.40728C14.3913 10.0949 14 11.0275 14 12C14 12.9725 14.3913 13.9051 15.0879 14.5927C15.7845 15.2804 16.7292 15.6667 17.7143 15.6667H26.87C26.9045 15.6667 26.9375 15.6531 26.9619 15.6291C26.9863 15.605 27 15.5724 27 15.5383V8.46167C27 8.42763 26.9863 8.39499 26.9619 8.37092C26.9375 8.34685 26.9045 8.33333 26.87 8.33333Z" stroke="#868889" stroke-width="2"/>
</svg>
